<svg width="160" height="170" viewBox="0 0 160 170" fill="none" xmlns="http://www.w3.org/2000/svg">
<path d="M138.237 58.5667C138.237 90.9222 111.978 117.133 79.5967 117.133C47.2155 117.133 20.9561 90.9071 20.9561 58.5667C20.9561 26.2264 47.2155 0 79.5967 0C111.978 0 138.237 26.2264 138.237 58.5667Z" fill="#00006E"/>
<path d="M118.645 36.5463C118.736 35.9258 118.782 35.2902 118.782 34.6395C118.782 27.224 112.751 21.2009 105.326 21.2009C103.583 21.2009 101.917 21.5339 100.401 22.1392C95.8708 23.925 92.5523 28.0867 91.9765 33.0807C91.9765 33.0505 91.9765 33.0051 91.9765 32.9748C91.9462 32.9748 91.9159 32.9748 91.8856 32.9748C82.5971 32.9748 74.1116 36.3798 67.596 42.0095C67.7021 41.9187 67.8384 41.8279 67.9445 41.7371C67.2323 42.297 66.5505 42.9024 65.914 43.5531C59.0196 50.2875 54.7314 59.6855 54.7314 70.0822C54.7314 70.3546 54.7466 70.6421 54.7617 70.9145C54.7617 71.5199 54.792 72.1252 54.8526 72.7154C54.792 72.216 54.7769 71.7015 54.7617 71.1869C54.7617 71.1113 54.7617 71.0205 54.7617 70.8994L54.7163 85.0946C47.6248 78.4662 43.1851 69.0228 43.1851 58.5656C43.1851 48.1083 47.6248 38.665 54.7163 32.0365C61.2016 25.968 69.9295 22.2451 79.5211 22.23C79.5362 22.23 79.5665 22.23 79.5817 22.23C79.5968 22.23 79.6272 22.23 79.6423 22.23C81.5515 22.1997 83.0971 20.641 83.0971 18.719C83.0971 16.7971 81.5212 15.208 79.5817 15.208C70.3386 15.208 61.7622 18.0985 54.7163 23.0169C43.5033 30.8561 36.1543 43.8558 36.1543 58.5656C36.1543 73.2754 43.4882 86.2751 54.7163 94.1142C55.2163 94.4623 56.0951 94.8104 57.0649 94.8104H88.7187C88.7187 94.8104 88.7187 94.7952 88.7187 94.7801C88.7187 94.432 88.7036 94.0991 88.6581 93.7662C88.5672 93.0095 88.4005 92.2831 88.1429 91.5869C86.855 88.1214 83.5062 85.6394 79.5665 85.6394C79.5211 85.6394 79.4756 85.6394 79.4453 85.6394C82.885 83.778 85.5973 80.7664 87.0671 77.1041C90.734 75.8783 93.9464 73.6386 96.3557 70.7178C96.3557 70.7178 96.3557 70.6875 96.3557 70.6724V70.7178L99.6892 88.8478L100.235 91.7988L100.295 92.1317C100.629 93.5543 101.826 94.6288 103.296 94.8104H113.736L112.311 87.0469L110.584 77.6035L105.735 51.241C105.675 50.3178 105.796 49.5611 106.159 49.0012C106.523 48.4413 107.023 48.0629 107.281 47.9267C108.72 50.454 111.433 52.1641 114.554 52.1641C119.175 52.1641 122.918 48.4261 122.918 43.8104C122.918 40.6778 121.191 37.9537 118.645 36.5312V36.5463ZM102.993 41.6766C99.9468 41.6766 97.477 39.2098 97.477 36.168C97.477 33.4742 99.4316 31.2193 101.992 30.7502L103.977 41.5858C103.659 41.6463 103.326 41.6766 102.993 41.6766Z" fill="#00AFFF"/>
<path d="M113.751 94.8085L112.327 87.045L110.599 77.6016C107.826 82.0963 104.114 85.9402 99.7197 88.8458L100.265 91.7969L100.326 92.1298C100.659 93.5524 101.856 94.6269 103.326 94.8085H113.766H113.751Z" fill="#0064FF"/>
<path d="M96.371 70.7254C99.2197 67.2144 101.023 62.6441 101.023 57.7711C101.023 50.1892 96.8862 43.5759 90.7342 40.0649C87.7492 38.3548 84.2792 37.3711 80.582 37.3711C71.4298 37.3711 63.6717 43.3943 61.0806 51.6723C60.4745 53.5943 60.1563 55.6524 60.1563 57.7711C60.1563 58.0586 60.1562 58.3462 60.1714 58.6337C60.626 58.21 61.1109 57.8165 61.6261 57.4382C64.3384 55.4557 67.6719 54.2601 71.2934 54.1996C72.7329 53.8818 74.233 53.7153 75.7786 53.7153C85.9157 53.7153 94.3709 60.8886 96.3256 70.4227C96.3407 70.4984 96.3559 70.5892 96.371 70.6649" fill="#0064FF"/>
<path d="M96.3725 70.6906L96.3271 70.4485C94.3572 60.9144 85.9021 53.7411 75.7801 53.7411C74.2345 53.7411 72.7496 53.9076 71.2949 54.2254C71.3707 54.2254 71.4465 54.2254 71.5374 54.2254C80.7805 54.2254 88.281 61.7165 88.281 70.9479C88.281 72.1283 88.1598 73.2785 87.9325 74.3832C87.7355 75.3366 87.4476 76.2598 87.0991 77.1375C90.7661 75.9117 93.9784 73.6719 96.3877 70.7512C96.3877 70.7512 96.3877 70.7209 96.3877 70.7058L96.3725 70.6906Z" fill="#0046C8"/>
<path d="M80.5969 78.1629C70.2325 78.1629 61.6713 70.46 60.353 60.4718C60.2773 59.8665 60.2167 59.246 60.1863 58.6255C56.8679 61.6825 54.792 66.0561 54.792 70.9291C54.792 71.5344 54.8223 72.1398 54.8829 72.73C55.7769 81.114 62.8835 87.6516 71.5356 87.6516C72.4296 87.6516 73.3085 87.576 74.157 87.4398C76.0511 87.1371 77.8391 86.5318 79.4756 85.654C82.9153 83.7926 85.6276 80.781 87.0974 77.1187C85.0518 77.7997 82.8698 78.1781 80.6121 78.1781L80.5969 78.1629Z" fill="#0082FF"/>
<path d="M91.8858 34.6429C91.8858 34.083 91.9313 33.523 91.9919 32.9782C91.9616 32.9782 91.9313 32.9782 91.901 32.9782C82.6124 32.9782 74.127 36.3833 67.6113 42.013C71.1419 39.1073 75.6574 37.367 80.5971 37.367C86.6279 37.367 92.0525 39.9851 95.7952 44.1468C93.3708 41.7103 91.8707 38.3506 91.8707 34.6581L91.8858 34.6429Z" fill="#0046C8"/>
<path d="M54.7764 70.9089C54.7764 66.0511 56.8523 61.6623 60.1707 58.6054C60.1707 58.3178 60.1556 58.0303 60.1556 57.7428C60.1556 52.1736 62.3982 47.1342 66.0045 43.4416C59.0646 50.176 54.7461 59.6193 54.7461 70.0463C54.7461 70.3339 54.7764 70.6214 54.7764 70.8938V70.9089Z" fill="#0046C8"/>
<path d="M107.297 47.9318C108.736 50.4591 111.449 52.1692 114.57 52.1692C119.192 52.1692 122.934 48.4312 122.934 43.8155C122.934 40.6828 121.207 37.9588 118.661 36.5363C117.828 42.4081 113.176 47.0692 107.312 47.9167L107.297 47.9318Z" fill="#0064FF"/>
<path d="M106.206 43.821C106.206 45.3192 106.6 46.7115 107.297 47.9222C113.176 47.0596 117.813 42.4136 118.646 36.5418C117.434 35.8608 116.04 35.4673 114.57 35.4673C109.949 35.4673 106.206 39.2053 106.206 43.821Z" fill="#0082FF"/>
<path d="M105.343 21.204C103.601 21.204 101.934 21.537 100.419 22.1423C95.4334 24.1097 91.8877 28.9675 91.8877 34.6426C91.8877 42.0126 97.8275 47.9904 105.177 48.0812C105.237 48.0812 105.283 48.0812 105.343 48.0812C106.01 48.0812 106.661 48.0358 107.313 47.9298C106.631 46.7192 106.222 45.3117 106.222 43.8287C106.222 39.2129 109.965 35.475 114.586 35.475C116.071 35.475 117.465 35.8684 118.662 36.5494C118.753 35.929 118.799 35.2933 118.799 34.6426C118.799 27.2272 112.768 21.204 105.343 21.204ZM102.995 41.6797C99.9489 41.6797 97.479 39.2129 97.479 36.1711C97.479 33.4773 99.4337 31.2224 101.994 30.7533L103.979 41.5889C103.661 41.6494 103.328 41.6797 102.995 41.6797Z" fill="#0064FF"/>
<path d="M105.752 51.2443C105.767 51.6529 105.782 52.0615 105.782 52.4852C105.782 57.6155 104.009 62.3825 101.085 66.181C99.736 67.9214 98.1449 69.465 96.3721 70.7362L99.7056 88.8662C104.1 85.9454 107.827 82.1015 110.585 77.622L105.736 51.2594L105.752 51.2443Z" fill="#0046C8"/>
<path d="M88.6733 93.7742C88.5824 93.0175 88.4157 92.2911 88.1581 91.5949C86.8702 88.1294 83.5214 85.6475 79.5817 85.6475C79.5363 85.6475 79.506 85.6475 79.4605 85.6475C77.824 86.5252 76.036 87.1457 74.142 87.4332C73.2934 87.5694 72.4146 87.6451 71.5206 87.6451C62.8836 87.6451 55.777 81.1074 54.8678 72.7234C54.8072 72.224 54.7921 71.7095 54.7769 71.2101C54.7769 71.1344 54.7769 71.0436 54.7769 70.9225L54.7314 85.1178C56.4437 86.722 58.3075 88.1596 60.3076 89.4006C60.7622 89.6881 61.2168 89.9605 61.6713 90.2178C64.414 91.7614 67.3687 92.9721 70.4902 93.7742C72.5358 94.3038 74.642 94.6519 76.8088 94.8184H88.7188C88.7188 94.8184 88.7188 94.8032 88.7188 94.7881C88.7188 94.44 88.7036 94.1071 88.6582 93.7742H88.6733Z" fill="#0064FF"/>
<path d="M0.0151559 132.378C0.0151559 132.197 0.136372 132.076 0.318204 132.076H8.19756C12.7282 132.076 14.8344 134.3 14.8344 137.614C14.8344 139.884 13.7889 141.277 12.41 142.049V142.109C13.7889 142.624 15.1981 144.334 15.1981 146.816C15.1981 150.917 12.4706 152.869 7.97028 152.869H0.303059C0.121228 152.869 0 152.748 0 152.566V132.378H0.0151559ZM7.65207 140.581C9.36431 140.581 10.3795 139.657 10.3795 138.129C10.3795 136.601 9.36431 135.708 7.65207 135.708H4.47003C4.34881 135.708 4.2882 135.768 4.2882 135.889V140.384C4.2882 140.505 4.34881 140.565 4.47003 140.565H7.65207V140.581ZM4.47003 149.237H7.89452C9.72798 149.237 10.7129 148.253 10.7129 146.634C10.7129 145.015 9.72798 144.031 7.89452 144.031H4.47003C4.34881 144.031 4.2882 144.092 4.2882 144.213V149.04C4.2882 149.161 4.34881 149.222 4.47003 149.222V149.237Z" fill="black"/>
<path d="M59.7178 132.347C59.7178 132.165 59.839 132.044 60.0208 132.044H63.8545C64.0969 132.044 64.2484 132.135 64.3393 132.347L69.6124 144.212H69.7337L74.9007 132.347C74.9916 132.135 75.1432 132.044 75.3856 132.044H79.1738C79.3556 132.044 79.4768 132.165 79.4768 132.347V152.581C79.4768 152.762 79.3556 152.883 79.1738 152.883H75.5068C75.325 152.883 75.2038 152.762 75.2038 152.581V140.822H75.0825L71.2186 149.599C71.0974 149.872 70.9156 149.993 70.6428 149.993H68.5366C68.2639 149.993 68.082 149.872 67.9608 149.599L64.0969 140.822H63.9757V152.581C63.9757 152.762 63.8544 152.883 63.6726 152.883H60.0208C59.839 152.883 59.7178 152.762 59.7178 152.581V132.347Z" fill="black"/>
<path d="M125.207 152.939C124.995 152.939 124.873 152.848 124.752 152.637L121.449 146.674L119.919 148.566V152.637C119.919 152.818 119.797 152.939 119.615 152.939H115.949C115.767 152.939 115.646 152.818 115.646 152.637V132.448C115.646 132.267 115.767 132.146 115.949 132.146H119.615C119.797 132.146 119.919 132.267 119.919 132.448V143.678L124.176 138.441C124.358 138.229 124.51 138.139 124.752 138.139H128.677C128.859 138.139 128.919 138.32 128.798 138.441L124.267 143.678L129.434 152.637C129.525 152.758 129.465 152.939 129.283 152.939H125.207Z" fill="black"/>
<path d="M159.755 138.091H155.951C155.769 138.091 155.648 138.212 155.588 138.394L152.83 146.96H152.769L149.799 138.394C149.739 138.212 149.617 138.091 149.436 138.091H145.511C145.329 138.091 145.208 138.212 145.269 138.394L150.784 152.15H150.799L148.375 158.385H152.36L153.981 154.133L159.982 138.394C160.043 138.212 159.952 138.091 159.739 138.091H159.755Z" fill="black"/>
<path d="M22.3347 132.076H18.6678C18.5088 132.076 18.3799 132.204 18.3799 132.363V152.582C18.3799 152.74 18.5088 152.869 18.6678 152.869H22.3347C22.4937 152.869 22.6226 152.74 22.6226 152.582V132.363C22.6226 132.204 22.4937 132.076 22.3347 132.076Z" fill="black"/>
<path d="M38.9274 138.094H35.2605C35.0786 138.094 34.9574 138.215 34.9574 138.397V147.129C34.9574 148.703 34.1998 149.807 32.7149 149.822C31.2299 149.822 30.4723 148.718 30.4723 147.129V138.397C30.4723 138.215 30.351 138.094 30.1692 138.094H26.5023C26.3204 138.094 26.1992 138.215 26.1992 138.397V147.946C26.1992 151.139 28.0933 153.424 32.6997 153.455C32.6997 153.455 32.7148 153.455 32.73 153.455C32.73 153.455 32.7452 153.455 32.7603 153.455C37.3516 153.439 39.2608 151.154 39.2608 147.946V138.397C39.2608 138.215 39.1396 138.094 38.9577 138.094H38.9274Z" fill="black"/>
<path d="M112.024 152.892H108.357C108.175 152.892 108.054 152.771 108.054 152.589V144.084C108.054 142.51 107.296 141.406 105.812 141.391C104.327 141.391 103.569 142.495 103.569 144.084V152.589C103.569 152.771 103.448 152.892 103.266 152.892H99.5989C99.4171 152.892 99.2959 152.771 99.2959 152.589V143.267C99.2959 140.074 101.19 137.789 105.796 137.758C105.796 137.758 105.812 137.758 105.827 137.758C105.827 137.758 105.842 137.758 105.857 137.758C110.448 137.774 112.357 140.059 112.357 143.267V152.589C112.357 152.771 112.236 152.892 112.054 152.892H112.024Z" fill="black"/>
<path d="M82.9156 149.255C82.5822 148.166 82.4307 147.121 82.4307 145.623C82.4307 144.125 82.5822 143.081 82.9156 141.991C83.7793 139.267 86.2188 137.769 89.3403 137.769C92.4617 137.769 94.9164 139.252 95.765 141.991C96.0983 143.081 96.2498 144.125 96.2498 145.623C96.2498 147.121 96.0983 148.166 95.765 149.255C94.9013 151.979 92.4617 153.477 89.3403 153.477C86.2188 153.477 83.7641 151.994 82.9156 149.255ZM91.6283 148.196C91.8405 147.515 91.9011 146.894 91.9011 145.623C91.9011 144.352 91.8405 143.731 91.6283 143.05C91.295 141.991 90.4616 141.431 89.3251 141.431C88.1887 141.431 87.3704 141.991 87.0219 143.05C86.8098 143.731 86.7492 144.352 86.7492 145.623C86.7492 146.894 86.8098 147.515 87.0219 148.196C87.3553 149.255 88.1887 149.815 89.3251 149.815C90.4616 149.815 91.2798 149.255 91.6283 148.196Z" fill="black"/>
<path d="M130.889 149.173C130.586 148.25 130.374 147.16 130.374 145.616C130.374 144.073 130.556 142.953 130.859 142.03C131.723 139.336 134.071 137.792 137.223 137.792C140.375 137.792 142.769 139.366 143.617 141.999C143.92 142.998 144.102 144.073 144.102 146.615C144.102 146.797 143.981 146.918 143.769 146.918H134.799C134.677 146.918 134.617 146.978 134.617 147.099C134.647 147.402 134.708 147.69 134.799 147.932C135.193 149.233 136.329 149.914 137.859 149.914C139.39 149.914 140.405 149.385 141.254 148.582C141.405 148.461 141.557 148.431 141.678 148.582L143.693 150.504C143.845 150.626 143.845 150.807 143.723 150.943C142.314 152.457 140.147 153.455 137.42 153.455C134.056 153.455 131.723 151.882 130.874 149.188L130.889 149.173ZM139.708 144.027C139.829 144.027 139.89 143.967 139.89 143.846C139.89 143.377 139.829 143.044 139.738 142.726C139.405 141.697 138.481 141.076 137.253 141.076C136.026 141.076 135.117 141.697 134.768 142.726C134.677 143.028 134.617 143.377 134.617 143.846C134.617 143.967 134.677 144.027 134.799 144.027H139.693H139.708Z" fill="black"/>
<path d="M43.0796 149.173C42.7766 148.25 42.5645 147.16 42.5645 145.616C42.5645 144.073 42.7463 142.953 43.0493 142.03C43.913 139.336 46.2617 137.792 49.4134 137.792C52.5652 137.792 54.9593 139.366 55.8079 141.999C56.1109 142.998 56.2927 144.073 56.2927 146.615C56.2927 146.797 56.1715 146.918 55.9594 146.918H46.989C46.8678 146.918 46.8072 146.978 46.8072 147.099C46.8375 147.402 46.8981 147.69 46.989 147.932C47.383 149.233 48.5194 149.914 50.0499 149.914C51.5803 149.914 52.5955 149.385 53.444 148.582C53.5956 148.461 53.7471 148.431 53.8683 148.582L55.8836 150.504C56.0351 150.626 56.0351 150.807 55.9139 150.943C54.5047 152.457 52.3379 153.455 49.6104 153.455C46.2465 153.455 43.913 151.882 43.0645 149.188L43.0796 149.173ZM51.8985 144.027C52.0197 144.027 52.0803 143.967 52.0803 143.846C52.0803 143.377 52.0197 143.044 51.9288 142.726C51.5954 141.697 50.6711 141.076 49.4437 141.076C48.2164 141.076 47.3072 141.697 46.9587 142.726C46.8678 143.028 46.8072 143.377 46.8072 143.846C46.8072 143.967 46.8678 144.027 46.989 144.027H51.8833H51.8985Z" fill="black"/>
<path d="M54.625 164.412C54.625 163.126 54.6856 162.687 54.8371 162.248C55.2311 161.038 56.2009 160.432 57.504 160.432C58.7011 160.432 59.6254 160.992 60.08 161.991C60.1103 162.052 60.08 162.097 60.0345 162.142L59.3223 162.475C59.3223 162.475 59.1859 162.475 59.1556 162.415C58.8374 161.809 58.3374 161.386 57.504 161.386C56.6706 161.386 56.0948 161.794 55.8372 162.521C55.7311 162.839 55.6857 163.217 55.6857 164.428C55.6857 165.638 55.7311 166.017 55.8372 166.334C56.0948 167.061 56.6252 167.469 57.504 167.469C58.3829 167.469 58.8374 167.046 59.1556 166.44C59.1859 166.38 59.2466 166.35 59.3223 166.38L60.0345 166.713C60.0345 166.713 60.1103 166.804 60.08 166.864C59.6254 167.848 58.7011 168.423 57.504 168.423C56.1857 168.423 55.2311 167.817 54.8371 166.607C54.6856 166.168 54.625 165.729 54.625 164.443" fill="black"/>
<path d="M63.7453 166.925C63.6241 166.547 63.5635 166.184 63.5635 165.548C63.5635 164.912 63.6241 164.549 63.7453 164.171C64.0332 163.248 64.8363 162.703 65.897 162.703C66.9577 162.703 67.7456 163.233 68.0486 164.171C68.1699 164.549 68.2305 164.912 68.2305 165.548C68.2305 166.184 68.1699 166.562 68.0486 166.925C67.7607 167.848 66.9577 168.393 65.897 168.393C64.8363 168.393 64.0484 167.848 63.7453 166.925ZM67.1092 166.653C67.2001 166.365 67.2304 166.063 67.2304 165.548C67.2304 165.033 67.2001 164.746 67.1092 164.443C66.9274 163.898 66.4879 163.596 65.8818 163.596C65.2757 163.596 64.8363 163.898 64.6545 164.443C64.5636 164.731 64.5332 165.018 64.5332 165.548C64.5332 166.078 64.5636 166.365 64.6545 166.653C64.8363 167.198 65.2757 167.5 65.8818 167.5C66.4879 167.5 66.9274 167.198 67.1092 166.653Z" fill="black"/>
<path d="M62.2782 160.557H61.5358C61.4772 160.557 61.4297 160.605 61.4297 160.663V168.154C61.4297 168.213 61.4772 168.26 61.5358 168.26H62.2782C62.3368 168.26 62.3843 168.213 62.3843 168.154V160.663C62.3843 160.605 62.3368 160.557 62.2782 160.557Z" fill="black"/>
<path d="M79.2928 160.557H78.5655C78.5655 160.557 78.4594 160.603 78.4594 160.663V163.372C78.1564 162.827 77.626 162.706 77.1109 162.706C76.0502 162.706 75.2622 163.236 74.9592 164.174C74.838 164.552 74.7773 164.916 74.7773 165.551C74.7773 166.187 74.838 166.565 74.9592 166.928C75.2471 167.852 76.0502 168.396 77.1109 168.396C78.1715 168.396 78.9595 167.852 79.2625 166.928C79.3838 166.565 79.414 166.126 79.414 165.839C79.414 165.839 79.414 165.824 79.414 165.808V160.663C79.414 160.663 79.3686 160.557 79.308 160.557M77.0957 167.503C76.4896 167.503 76.0502 167.201 75.8683 166.656C75.7774 166.368 75.7471 166.066 75.7471 165.551C75.7471 165.037 75.7774 164.749 75.8683 164.446C76.0502 163.902 76.4896 163.599 77.0957 163.599C77.7018 163.599 78.1412 163.902 78.3231 164.446C78.414 164.734 78.4443 165.022 78.4443 165.551C78.4443 166.081 78.414 166.368 78.3231 166.656C78.1412 167.201 77.7018 167.503 77.0957 167.503Z" fill="black"/>
<path d="M43.1236 160.557C43.1236 160.557 43.0176 160.603 43.0176 160.663V165.808C43.0176 165.808 43.0176 165.824 43.0176 165.839C43.0176 166.126 43.063 166.565 43.1691 166.928C43.457 167.852 44.2601 168.396 45.3208 168.396C46.3814 168.396 47.1694 167.852 47.4725 166.928C47.5937 166.55 47.6543 166.187 47.6543 165.551C47.6543 164.931 47.5937 164.552 47.4725 164.174C47.1846 163.251 46.3814 162.706 45.3208 162.706C44.7904 162.706 44.2752 162.827 43.9722 163.372V160.663C43.9722 160.663 43.9267 160.557 43.8661 160.557H43.1388M45.3056 167.503C44.6995 167.503 44.2601 167.201 44.0783 166.656C43.9873 166.368 43.957 166.066 43.957 165.551C43.957 165.037 43.9873 164.749 44.0783 164.446C44.2601 163.902 44.6995 163.599 45.3056 163.599C45.9117 163.599 46.3511 163.902 46.533 164.446C46.6239 164.734 46.6542 165.022 46.6542 165.551C46.6542 166.081 46.6239 166.368 46.533 166.656C46.3511 167.201 45.9117 167.503 45.3056 167.503Z" fill="black"/>
<path d="M89.5207 160.588H88.066C88.0075 160.588 87.96 160.636 87.96 160.694V168.185C87.96 168.244 88.0075 168.291 88.066 168.291H89.5207C89.5793 168.291 89.6268 168.244 89.6268 168.185V160.694C89.6268 160.636 89.5793 160.588 89.5207 160.588Z" fill="black"/>
<path d="M98.0215 164.428C98.0215 163.232 98.067 162.839 98.2336 162.34C98.6428 161.084 99.6277 160.448 100.976 160.448C102.325 160.448 103.234 161.084 103.658 162.158C103.689 162.219 103.658 162.264 103.598 162.294L102.385 162.839C102.385 162.839 102.264 162.839 102.234 162.778C101.991 162.249 101.628 161.916 100.991 161.916C100.385 161.916 100.006 162.234 99.8398 162.763C99.7489 163.051 99.7186 163.323 99.7186 164.413C99.7186 165.503 99.7489 165.79 99.8398 166.062C100.006 166.592 100.4 166.91 100.991 166.91C101.643 166.91 102.037 166.577 102.295 166.078C102.325 166.017 102.385 165.987 102.446 166.017L103.613 166.532C103.613 166.532 103.689 166.607 103.673 166.668C103.264 167.742 102.279 168.378 100.976 168.378C99.6731 168.378 98.6428 167.742 98.2336 166.486C98.067 165.987 98.0215 165.593 98.0215 164.398" fill="black"/>
<path d="M80.9893 164.428C80.9893 163.232 81.0347 162.839 81.2014 162.34C81.6105 161.084 82.5954 160.448 83.944 160.448C85.2926 160.448 86.2018 161.084 86.626 162.158C86.6563 162.219 86.626 162.264 86.5654 162.294L85.3532 162.839C85.3532 162.839 85.232 162.839 85.2017 162.778C84.9592 162.249 84.5956 161.916 83.9592 161.916C83.3531 161.916 82.9742 162.234 82.8076 162.763C82.7167 163.051 82.6863 163.323 82.6863 164.413C82.6863 165.503 82.7167 165.79 82.8076 166.062C82.9742 166.592 83.3682 166.91 83.9592 166.91C84.6107 166.91 85.0047 166.577 85.2623 166.078C85.2926 166.017 85.3532 165.987 85.4138 166.017L86.5806 166.532C86.5806 166.532 86.6563 166.607 86.6412 166.668C86.2321 167.742 85.2471 168.378 83.944 168.378C82.6409 168.378 81.6105 167.742 81.2014 166.486C81.0347 165.987 80.9893 165.593 80.9893 164.398" fill="black"/>
<path d="M104.765 165.461V160.694C104.765 160.694 104.81 160.588 104.871 160.588H106.31C106.31 160.588 106.416 160.634 106.416 160.694V165.507C106.416 166.43 106.932 166.944 107.704 166.944C108.477 166.944 108.992 166.43 108.992 165.507V160.694C108.992 160.694 109.038 160.588 109.098 160.588H110.538C110.538 160.588 110.644 160.634 110.644 160.694V165.461C110.644 167.383 109.417 168.412 107.689 168.412C105.962 168.412 104.734 167.368 104.734 165.461" fill="black"/>
<path d="M95.5211 168.292C95.415 168.292 95.3847 168.262 95.3544 168.186L94.0209 165.371H92.9906C92.9906 165.371 92.93 165.386 92.93 165.432V168.186C92.93 168.186 92.8845 168.292 92.8239 168.292H91.3844C91.3844 168.292 91.2783 168.246 91.2783 168.186V160.71C91.2783 160.71 91.3238 160.604 91.3844 160.604H94.4604C96.0363 160.604 97.0818 161.588 97.0818 162.995C97.0818 163.979 96.5666 164.766 95.7029 165.144L97.2181 168.186C97.2181 168.186 97.2182 168.322 97.1424 168.322H95.5362L95.5211 168.292ZM95.3998 162.98C95.3998 162.405 94.9907 162.027 94.3543 162.027H92.9906C92.9906 162.027 92.93 162.042 92.93 162.087V163.873C92.93 163.873 92.9451 163.933 92.9906 163.933H94.3543C94.9907 163.933 95.3998 163.555 95.3998 162.965" fill="black"/>
<path d="M71.4885 168.413C73.0341 168.413 73.6554 167.596 73.6554 166.355V162.965C73.6554 162.965 73.6099 162.859 73.5493 162.859H72.822C72.822 162.859 72.7159 162.904 72.7159 162.965V166.128C72.7159 167.006 72.3219 167.52 71.5189 167.52H71.5037C70.7006 167.52 70.3066 167.006 70.3066 166.128V162.965C70.3066 162.965 70.2612 162.859 70.2006 162.859H69.4732C69.4732 162.859 69.3672 162.904 69.3672 162.965V166.355C69.3672 167.596 69.9884 168.413 71.534 168.413" fill="black"/>
<path d="M116.69 161.167L116.614 161.122C116.387 160.955 115.462 160.486 114.311 160.486C112.508 160.486 111.735 161.606 111.735 162.65C111.735 164.058 112.917 164.648 113.856 165.011C114.811 165.39 115.402 165.813 115.402 166.282C115.402 166.752 114.841 166.994 114.296 166.963C113.932 166.948 113.189 166.767 112.568 166.358C112.523 166.328 112.447 166.328 112.401 166.388L111.659 167.433C111.659 167.433 111.629 167.538 111.659 167.569C112.098 167.917 113.083 168.431 114.326 168.431C116.068 168.431 117.008 167.281 117.008 166.207C117.008 164.996 115.781 164.149 114.583 163.695C113.689 163.347 113.341 163.029 113.341 162.59C113.341 162.136 114.099 161.546 115.735 162.333C115.887 162.408 115.917 162.378 115.947 162.302L116.675 161.288C116.675 161.288 116.705 161.213 116.659 161.167H116.69Z" fill="black"/>
<path d="M50.2755 170.001H49.4118C49.4118 170.001 49.3815 169.97 49.3815 169.955L50.2301 167.61L48.2754 162.964C48.2754 162.964 48.2905 162.858 48.3663 162.858H49.23C49.23 162.858 49.3361 162.903 49.3664 162.964L50.715 166.293L51.912 162.964C51.912 162.964 51.9726 162.858 52.0484 162.858H52.7606C52.7606 162.858 52.8666 162.903 52.8515 162.964L50.3361 169.955C50.3361 169.955 50.3058 170.001 50.2755 170.001Z" fill="black"/>
</svg>
