<svg width="160" height="48" viewBox="0 0 160 48" fill="none" xmlns="http://www.w3.org/2000/svg">
<path d="M45.5741 24C45.5741 27.3623 44.5768 30.6491 42.7083 33.4448C40.8398 36.2404 38.1841 38.4193 35.0769 39.706C31.9697 40.9926 28.5506 41.3293 25.2521 40.6733C21.9535 40.0173 18.9236 38.3981 16.5455 36.0206C14.1675 33.643 12.548 30.6138 11.892 27.3161C11.2359 24.0184 11.5728 20.6002 12.8599 17.4939C14.147 14.3876 16.3266 11.7326 19.1231 9.86466C21.9195 7.99676 25.2072 6.99986 28.5704 7C30.8034 7 33.0146 7.43974 35.0776 8.29407C37.1406 9.14841 39.0152 10.4006 40.5941 11.9792C42.1731 13.5578 43.4255 15.4319 44.28 17.4944C45.1345 19.5569 45.5742 21.7675 45.5741 24Z" fill="#00006E"/>
<path d="M39.8952 17.6047C40.0287 16.5794 39.7493 15.5432 39.1185 14.7238C38.4878 13.9045 37.5573 13.3693 36.5318 13.2358C35.5062 13.1023 34.4697 13.3816 33.6501 14.0122C32.8306 14.6428 32.2951 15.573 32.1617 16.5983C32.1617 16.588 32.1617 16.5777 32.1617 16.5682H32.1364C29.549 16.5641 27.0474 17.4948 25.0922 19.1889C25.125 19.1615 25.1606 19.1383 25.1941 19.1117C24.9867 19.2738 24.7902 19.4494 24.606 19.6374C23.5781 20.6389 22.7615 21.8363 22.2045 23.1587C21.6475 24.4812 21.3613 25.9018 21.3629 27.3367C21.3629 27.4181 21.3698 27.4988 21.3718 27.5795V27.5836C21.372 27.7579 21.3815 27.932 21.4005 28.1053C21.3848 27.9596 21.3766 27.8126 21.3745 27.6642C21.3745 27.6417 21.3745 27.615 21.3745 27.5822L21.3595 31.7037C19.815 30.259 18.7405 28.3836 18.2755 26.3208C17.8104 24.258 17.9763 22.103 18.7515 20.1356C19.5268 18.1682 20.8756 16.4792 22.623 15.2877C24.3703 14.0962 26.4356 13.4573 28.5507 13.4539H28.5849C28.8551 13.4516 29.1134 13.3421 29.3029 13.1494C29.4924 12.9568 29.5976 12.6967 29.5953 12.4266C29.5931 12.1564 29.4835 11.8981 29.2908 11.7087C29.0981 11.5193 28.838 11.4142 28.5678 11.4164C25.8889 11.4159 23.2796 12.2698 21.1196 13.8539C18.9595 15.438 17.3613 17.6697 16.5573 20.2245C15.7532 22.7792 15.7854 25.5238 16.6491 28.059C17.5128 30.5942 19.1629 32.7879 21.3595 34.321C21.5638 34.4513 21.801 34.5208 22.0434 34.5213H31.2206V34.5117C31.2207 34.1635 31.1522 33.8187 31.0189 33.497C30.8856 33.1754 30.6903 32.8831 30.444 32.6369C30.1977 32.3907 29.9053 32.1955 29.5835 32.0623C29.2616 31.9292 28.9167 31.8608 28.5685 31.8609H28.5322C29.5359 31.3188 30.3174 30.4417 30.7405 29.3825C31.7949 29.029 32.7286 28.3862 33.4351 27.5275L34.4007 32.7921L34.5573 33.6468L34.5744 33.7425C34.6223 33.9454 34.7314 34.1288 34.8868 34.2678C35.0423 34.4068 35.2366 34.4949 35.4437 34.52H38.472L38.0616 32.2677L37.559 29.5267L36.1549 21.8738C36.124 21.6494 36.1674 21.421 36.2787 21.2237C36.3612 21.0962 36.4724 20.9899 36.6036 20.9133C36.7875 21.2387 37.0442 21.5171 37.3537 21.7268C37.6632 21.9365 38.0171 22.0717 38.3876 22.1218C38.7581 22.172 39.1351 22.1357 39.4893 22.0159C39.8434 21.896 40.165 21.6958 40.4288 21.431C40.6927 21.1662 40.8916 20.844 41.0101 20.4895C41.1286 20.1349 41.1634 19.7578 41.1118 19.3876C41.0601 19.0174 40.9235 18.6642 40.7126 18.3556C40.5016 18.047 40.2221 17.7914 39.8958 17.6089L39.8952 17.6047ZM35.3534 19.0959C34.9543 19.0965 34.5694 18.9477 34.2744 18.6789C33.9794 18.4101 33.7958 18.0406 33.7595 17.6432C33.7232 17.2459 33.837 16.8493 34.0784 16.5315C34.3199 16.2138 34.6715 15.9979 35.0641 15.9262L35.6406 19.0713C35.5449 19.0879 35.4478 19.096 35.3507 19.0952L35.3534 19.0959Z" fill="#00AFFF"/>
<path d="M38.4739 34.5157L38.0635 32.2636L37.5609 29.5225C36.7568 30.8258 35.6801 31.9396 34.4047 32.7873L34.5613 33.6419L34.5784 33.7377C34.6263 33.9406 34.7353 34.124 34.8907 34.263C35.0462 34.402 35.2406 34.49 35.4476 34.515L38.4739 34.5157Z" fill="#2862CB"/>
<path d="M33.4363 27.5234C34.3026 26.4609 34.7786 25.1337 34.785 23.763C34.785 22.1921 34.1608 20.6856 33.0497 19.5748C31.9386 18.464 30.4317 17.8399 28.8604 17.8399C27.2891 17.8399 25.7821 18.464 24.6711 19.5748C23.56 20.6856 22.9358 22.1921 22.9358 23.763C22.9358 23.8464 22.9358 23.9305 22.9419 24.0139C23.0753 23.8913 23.2153 23.776 23.3612 23.6687C24.175 23.0712 25.1555 22.7434 26.1652 22.7312C26.9514 22.5595 27.7639 22.5454 28.5557 22.6897C29.3474 22.834 30.1027 23.1339 30.7777 23.5719C31.4528 24.01 32.0343 24.5776 32.4885 25.2417C32.9427 25.9059 33.2607 26.6535 33.424 27.4414C33.4281 27.4653 33.4322 27.4885 33.437 27.5097" fill="#2862CB"/>
<path d="M33.4343 27.5119L33.4214 27.4436C33.258 26.6557 32.9401 25.908 32.4858 25.2439C32.0316 24.5797 31.4501 24.0122 30.7751 23.5741C30.1 23.1361 29.3447 22.8362 28.553 22.6919C27.7612 22.5476 26.9487 22.5617 26.1625 22.7334H26.2309C27.0241 22.7321 27.8056 22.9254 28.5068 23.2963C29.208 23.6672 29.8075 24.2043 30.2527 24.8607C30.6979 25.5171 30.9752 26.2727 31.0604 27.0612C31.1456 27.8496 31.0359 28.6469 30.7412 29.3832C31.7956 29.0297 32.7293 28.387 33.4357 27.5284L33.4343 27.5119Z" fill="#2862CB"/>
<path d="M28.8591 29.6848C27.4244 29.6845 26.0386 29.1638 24.9588 28.2194C23.8791 27.275 23.1788 25.971 22.9878 24.5494C22.9639 24.373 22.9482 24.1939 22.9406 24.0127C22.2226 24.6748 21.721 25.5381 21.5014 26.4897C21.2818 27.4413 21.3543 28.4369 21.7096 29.3466C22.0649 30.2564 22.6864 31.0378 23.4929 31.5888C24.2994 32.1399 25.2533 32.435 26.2302 32.4355C26.4846 32.4355 26.7386 32.4158 26.99 32.3766C27.8215 32.2452 28.6045 31.8996 29.262 31.3739C29.9194 30.8483 30.4287 30.1606 30.7398 29.3785C30.1336 29.5818 29.4985 29.6852 28.8591 29.6848Z" fill="#2862CB"/>
<path d="M32.1335 17.0506C32.134 16.889 32.1442 16.7277 32.1643 16.5673H32.1403C29.553 16.5632 27.0514 17.4939 25.0962 19.1879C26.2752 18.218 27.7832 17.7406 29.3057 17.8553C30.8282 17.9699 32.2477 18.6678 33.2681 19.8033C32.9074 19.4415 32.6215 19.0122 32.4268 18.5398C32.2321 18.0675 32.1325 17.5615 32.1335 17.0506Z" fill="#2862CB"/>
<path d="M21.3763 27.5819C21.3757 26.911 21.5145 26.2474 21.784 25.633C22.0535 25.0186 22.4477 24.4669 22.9418 24.0129C22.9384 23.9295 22.9356 23.8461 22.9356 23.762C22.9336 22.2095 23.5435 20.7188 24.633 19.6125C23.5983 20.6149 22.7759 21.8152 22.2149 23.1419C21.6538 24.4686 21.3656 25.8947 21.3674 27.3351C21.3674 27.4178 21.3743 27.4998 21.3763 27.5819Z" fill="#2862CB"/>
<path d="M36.6035 20.9092C36.7875 21.2345 37.0444 21.5128 37.3539 21.7223C37.6634 21.9318 38.0172 22.0669 38.3877 22.1169C38.7581 22.1669 39.1351 22.1305 39.4891 22.0107C39.8432 21.8908 40.1646 21.6906 40.4284 21.4258C40.6922 21.161 40.8911 20.8388 41.0095 20.4844C41.128 20.13 41.1628 19.7529 41.1112 19.3828C41.0596 19.0127 40.923 18.6595 40.7122 18.3509C40.5013 18.0424 40.2219 17.7868 39.8958 17.6041C39.7764 18.4361 39.3914 19.2072 38.7981 19.8028C38.2049 20.3983 37.4352 20.7863 36.6035 20.9092Z" fill="#2862CB"/>
<path d="M36.2882 19.7162C36.2882 20.1343 36.3968 20.5452 36.6035 20.9086C37.435 20.7858 38.2047 20.3978 38.7979 19.8024C39.3911 19.207 39.7762 18.436 39.8958 17.6042C39.5272 17.3972 39.1108 17.2903 38.688 17.2941C38.2652 17.2979 37.8508 17.4123 37.486 17.626C37.1212 17.8397 36.8188 18.1452 36.6087 18.512C36.3987 18.8789 36.2884 19.2943 36.2889 19.717L36.2882 19.7162Z" fill="#2862CB"/>
<path d="M36.0337 13.1495C34.9992 13.1431 34.0045 13.5477 33.2685 14.2745C32.5324 15.0013 32.1153 15.9906 32.1088 17.0248C32.1024 18.0591 32.5072 19.0535 33.2341 19.7893C33.9611 20.5252 34.9507 20.9422 35.9852 20.9487H36.0337C36.2242 20.9487 36.4143 20.9348 36.6027 20.907C36.3421 20.4469 36.2393 19.9142 36.31 19.3903C36.3807 18.8663 36.621 18.3799 36.9942 18.0053C37.3674 17.6307 37.853 17.3886 38.3768 17.3158C38.9006 17.2431 39.4338 17.3438 39.895 17.6025C39.975 17.0491 39.9349 16.485 39.7775 15.9485C39.6201 15.412 39.349 14.9156 38.9828 14.493C38.6165 14.0705 38.1635 13.7316 37.6547 13.4996C37.1458 13.2675 36.593 13.1477 36.0337 13.1481V13.1495ZM35.3498 19.0978C34.9507 19.0984 34.5658 18.9496 34.2708 18.6808C33.9759 18.412 33.7922 18.0426 33.7559 17.6452C33.7197 17.2478 33.8334 16.8512 34.0749 16.5335C34.3163 16.2157 34.6679 15.9998 35.0605 15.9281L35.6371 19.0732C35.5433 19.0888 35.4483 19.0961 35.3532 19.0951L35.3498 19.0978Z" fill="#2862CB"/>
<path d="M36.1548 21.8692C36.161 21.9875 36.1651 22.1079 36.1651 22.2282C36.1602 23.2633 35.9104 24.2825 35.4363 25.2027C34.9622 26.1229 34.2771 26.918 33.437 27.5229L34.4027 32.7875C35.6781 31.9398 36.7549 30.826 37.5589 29.5228L36.1548 21.8692Z" fill="#2862CB"/>
<path d="M31.2048 34.2138C31.1338 33.565 30.8255 32.9653 30.3391 32.5299C29.8527 32.0945 29.2226 31.8541 28.5697 31.8549H28.5335C28.0524 32.114 27.531 32.2897 26.9913 32.3746C26.7399 32.4137 26.4859 32.4334 26.2315 32.4334C25.0349 32.433 23.8806 31.9909 22.99 31.1919C22.0994 30.3929 21.5353 29.2933 21.4059 28.1041C21.3902 27.9585 21.382 27.8114 21.3799 27.6631C21.3799 27.6405 21.3799 27.6131 21.3799 27.5783L21.3649 31.7005C21.8619 32.1648 22.4024 32.5803 22.9789 32.9414C23.1095 33.0227 23.2415 33.1021 23.3762 33.178C24.7226 33.9426 26.222 34.3988 27.7661 34.5139H31.2191V34.5043C31.2197 34.4073 31.2149 34.3103 31.2048 34.2138Z" fill="#2862CB"/>
<path d="M51.6185 13.8158C51.617 13.791 51.6208 13.7663 51.6295 13.7432C51.6383 13.72 51.6519 13.6989 51.6694 13.6814C51.687 13.6639 51.708 13.6503 51.7312 13.6415C51.7543 13.6327 51.7791 13.629 51.8038 13.6305H56.7026C59.4382 13.6305 60.7143 14.9801 60.7143 16.9759C60.7481 17.5147 60.6288 18.0522 60.3704 18.5263C60.1119 19.0003 59.7248 19.3917 59.2535 19.6554V19.6923C59.7844 19.9465 60.2278 20.3528 60.5274 20.8594C60.8269 21.3661 60.9691 21.9503 60.9359 22.5379C60.9359 25.0144 59.2904 26.1972 56.5733 26.1972H51.8038C51.7791 26.1987 51.7543 26.1949 51.7312 26.1861C51.708 26.1773 51.687 26.1637 51.6694 26.1462C51.6519 26.1287 51.6383 26.1077 51.6295 26.0846C51.6208 26.0614 51.617 26.0367 51.6185 26.0119V13.8158ZM56.3695 18.7686C56.5785 18.7995 56.7916 18.7838 56.9939 18.7229C57.1961 18.6619 57.3823 18.5572 57.5394 18.416C57.6965 18.2748 57.8205 18.1008 57.9026 17.9062C57.9846 17.7117 58.0228 17.5014 58.0143 17.2904C58.0143 16.3661 57.4043 15.8307 56.3695 15.8307H54.4464C54.4313 15.8285 54.416 15.8298 54.4016 15.8346C54.3871 15.8394 54.374 15.8476 54.3632 15.8583C54.3525 15.8691 54.3444 15.8822 54.3396 15.8966C54.3348 15.9111 54.3334 15.9264 54.3356 15.9415V18.6585C54.3334 18.6736 54.3348 18.6889 54.3396 18.7034C54.3444 18.7178 54.3525 18.7309 54.3632 18.7417C54.374 18.7524 54.3871 18.7605 54.4016 18.7653C54.416 18.7701 54.4313 18.7715 54.4464 18.7693L56.3695 18.7686ZM54.4464 23.9991H56.5172C56.9344 23.9991 57.3345 23.8334 57.6295 23.5385C57.9245 23.2436 58.0902 22.8436 58.0902 22.4265C58.0902 22.0094 57.9245 21.6095 57.6295 21.3145C57.3345 21.0196 56.9344 20.8539 56.5172 20.8539H54.4464C54.4313 20.8517 54.4158 20.8531 54.4014 20.8579C54.3869 20.8628 54.3737 20.871 54.3629 20.8818C54.3522 20.8926 54.3441 20.9058 54.3393 20.9204C54.3346 20.9349 54.3333 20.9503 54.3356 20.9654V23.8849C54.3329 23.9002 54.3339 23.916 54.3385 23.9308C54.3432 23.9457 54.3512 23.9592 54.3621 23.9703C54.373 23.9814 54.3864 23.9897 54.4012 23.9946C54.416 23.9995 54.4317 24.0008 54.4471 23.9983L54.4464 23.9991Z" fill="#143166"/>
<path d="M87.9895 13.8096C87.988 13.785 87.9917 13.7603 88.0005 13.7372C88.0092 13.7141 88.0227 13.6931 88.0402 13.6756C88.0576 13.6581 88.0786 13.6445 88.1017 13.6356C88.1247 13.6268 88.1494 13.623 88.1741 13.6244H90.3756C90.4385 13.6182 90.5017 13.633 90.5552 13.6665C90.6088 13.7 90.6498 13.7504 90.6717 13.8096L93.8511 20.9805H93.925L97.0484 13.8096C97.0704 13.7504 97.1114 13.7002 97.1649 13.6667C97.2185 13.6332 97.2816 13.6183 97.3445 13.6244H99.507C99.5316 13.623 99.5563 13.6268 99.5794 13.6356C99.6025 13.6445 99.6234 13.6581 99.6409 13.6756C99.6583 13.6931 99.6719 13.7141 99.6806 13.7372C99.6894 13.7603 99.6931 13.785 99.6916 13.8096V26.0393C99.6931 26.0639 99.6894 26.0887 99.6806 26.1117C99.6719 26.1348 99.6583 26.1557 99.6409 26.1732C99.6234 26.1906 99.6024 26.2041 99.5794 26.2129C99.5563 26.2216 99.5316 26.2254 99.507 26.2239H97.4197C97.3951 26.2254 97.3704 26.2216 97.3473 26.2129C97.3242 26.2041 97.3033 26.1906 97.2858 26.1732C97.2684 26.1557 97.2548 26.1348 97.2461 26.1117C97.2373 26.0887 97.2336 26.0639 97.2351 26.0393V18.9287H97.1612L94.8318 24.2329C94.8073 24.3056 94.7598 24.3683 94.6965 24.4115C94.6332 24.4548 94.5576 24.4763 94.481 24.4729H93.2055C93.1289 24.4763 93.0533 24.4548 92.99 24.4115C92.9267 24.3683 92.8792 24.3056 92.8547 24.2329L90.5253 18.9287H90.4515V26.0393C90.453 26.064 90.4492 26.0888 90.4404 26.1119C90.4316 26.135 90.418 26.156 90.4005 26.1734C90.383 26.1909 90.3619 26.2044 90.3388 26.2131C90.3156 26.2218 90.2908 26.2255 90.2662 26.2239H88.1775C88.1529 26.2254 88.1282 26.2216 88.1051 26.2129C88.082 26.2041 88.0611 26.1906 88.0436 26.1732C88.0262 26.1557 88.0126 26.1348 88.0039 26.1117C87.9951 26.0887 87.9914 26.0639 87.9929 26.0393L87.9895 13.8096Z" fill="#143166"/>
<path d="M127.412 26.2303C127.353 26.2311 127.294 26.2139 127.245 26.1808C127.195 26.1477 127.157 26.1003 127.135 26.045L125.138 22.4411L124.214 23.587V26.045C124.216 26.0697 124.212 26.0943 124.203 26.1174C124.195 26.1405 124.181 26.1616 124.164 26.1791C124.146 26.1966 124.125 26.2102 124.102 26.219C124.079 26.2278 124.054 26.2317 124.03 26.2303H121.808C121.784 26.2317 121.759 26.2278 121.736 26.219C121.713 26.2102 121.692 26.1966 121.674 26.1791C121.657 26.1616 121.643 26.1405 121.635 26.1174C121.626 26.0943 121.622 26.0697 121.624 26.045V13.8475C121.622 13.8228 121.626 13.798 121.634 13.7749C121.643 13.7517 121.657 13.7307 121.674 13.7132C121.692 13.6957 121.713 13.682 121.736 13.6732C121.759 13.6644 121.784 13.6607 121.808 13.6622H124.027C124.052 13.6607 124.076 13.6644 124.099 13.6732C124.123 13.682 124.144 13.6957 124.161 13.7132C124.178 13.7307 124.192 13.7517 124.201 13.7749C124.209 13.798 124.213 13.8228 124.212 13.8475V20.63L126.782 17.4698C126.82 17.4124 126.873 17.3655 126.934 17.3332C126.995 17.3008 127.063 17.2842 127.132 17.2845H129.499C129.521 17.2824 129.544 17.2876 129.563 17.2993C129.582 17.311 129.597 17.3287 129.605 17.3495C129.613 17.3704 129.615 17.3934 129.609 17.415C129.603 17.4367 129.59 17.4559 129.573 17.4698L126.837 20.63L129.961 26.045C129.975 26.0618 129.984 26.0824 129.987 26.1042C129.989 26.1261 129.986 26.1482 129.976 26.1679C129.966 26.1876 129.951 26.204 129.932 26.2151C129.913 26.2262 129.891 26.2314 129.869 26.2303H127.412Z" fill="#143166"/>
<path d="M148.276 17.2697H145.984C145.932 17.2715 145.882 17.2907 145.842 17.3241C145.802 17.3575 145.774 17.4033 145.762 17.4543L144.099 22.6294H144.062L142.268 17.4543C142.257 17.4032 142.229 17.3573 142.189 17.3239C142.149 17.2904 142.098 17.2713 142.046 17.2697H139.68C139.569 17.2697 139.495 17.3435 139.532 17.4543L142.859 25.7704L142.873 25.7786L141.409 29.5391H143.817L144.798 26.9689L148.423 17.4516C148.461 17.3436 148.406 17.2697 148.276 17.2697Z" fill="#143166"/>
<path d="M65.2172 13.6302H63.0356C62.9294 13.6302 62.8434 13.7162 62.8434 13.8223V26.0048C62.8434 26.1109 62.9294 26.1969 63.0356 26.1969H65.2172C65.3233 26.1969 65.4094 26.1109 65.4094 26.0048V13.8223C65.4094 13.7162 65.3233 13.6302 65.2172 13.6302Z" fill="#143166"/>
<path d="M75.3593 17.2686H73.1408C73.1161 17.2671 73.0914 17.2709 73.0684 17.2796C73.0453 17.2884 73.0243 17.3019 73.0069 17.3194C72.9894 17.3368 72.9759 17.3578 72.9671 17.3809C72.9584 17.4039 72.9546 17.4286 72.9561 17.4532V22.7274C72.9561 23.6846 72.4993 24.3444 71.6047 24.3526C70.7102 24.3437 70.2533 23.6826 70.2533 22.7274V17.4505C70.2547 17.4258 70.2509 17.4011 70.2421 17.378C70.2332 17.355 70.2196 17.334 70.2021 17.3166C70.1846 17.2992 70.1636 17.2856 70.1405 17.2769C70.1174 17.2681 70.0927 17.2644 70.068 17.2659H67.8501C67.8255 17.2644 67.8008 17.2681 67.7777 17.2769C67.7547 17.2856 67.7337 17.2991 67.7162 17.3166C67.6988 17.334 67.6852 17.355 67.6765 17.3781C67.6677 17.4012 67.664 17.4258 67.6655 17.4505V23.2265C67.6655 25.1587 68.8131 26.5398 71.5876 26.5521H71.6211C74.3957 26.5405 75.5433 25.1594 75.5433 23.2265V17.4505C75.5444 17.4261 75.5404 17.4018 75.5315 17.3791C75.5226 17.3564 75.509 17.3358 75.4917 17.3187C75.4744 17.3015 75.4536 17.2883 75.4308 17.2796C75.408 17.271 75.3837 17.2672 75.3593 17.2686Z" fill="#143166"/>
<path d="M119.454 26.2093H117.236C117.211 26.2108 117.186 26.207 117.163 26.1982C117.14 26.1895 117.119 26.176 117.102 26.1585C117.084 26.1411 117.071 26.1201 117.062 26.097C117.053 26.0739 117.05 26.0493 117.051 26.0246V20.8872C117.051 19.93 116.594 19.2702 115.7 19.262C114.805 19.2702 114.348 19.9321 114.348 20.8872V26.0246C114.35 26.0493 114.346 26.0741 114.337 26.0973C114.329 26.1204 114.315 26.1413 114.297 26.1588C114.28 26.1762 114.259 26.1898 114.236 26.1985C114.212 26.2072 114.188 26.2109 114.163 26.2093H111.946C111.921 26.2108 111.897 26.207 111.873 26.1982C111.85 26.1895 111.829 26.176 111.812 26.1585C111.794 26.1411 111.781 26.1201 111.772 26.097C111.763 26.0739 111.76 26.0493 111.761 26.0246V20.3881C111.761 18.4559 112.909 17.0742 115.683 17.0625H115.717C118.491 17.0735 119.639 18.4552 119.639 20.3881V26.0246C119.64 26.0493 119.637 26.0741 119.628 26.0973C119.619 26.1204 119.606 26.1413 119.588 26.1588C119.57 26.1762 119.549 26.1898 119.526 26.1985C119.503 26.2072 119.478 26.2109 119.454 26.2093Z" fill="#143166"/>
<path d="M101.869 24.0025C101.474 22.5666 101.474 21.0509 101.869 19.615C102.386 17.9645 103.865 17.0648 105.75 17.0648C107.636 17.0648 109.115 17.9652 109.633 19.615C110.027 21.0509 110.027 22.5666 109.633 24.0025C109.115 25.6523 107.636 26.552 105.75 26.552C103.865 26.552 102.39 25.6523 101.869 24.0025ZM107.135 23.3646C107.357 22.339 107.357 21.2778 107.135 20.2523C107.032 19.9666 106.844 19.7195 106.596 19.5449C106.348 19.3702 106.052 19.2764 105.748 19.2764C105.445 19.2764 105.149 19.3702 104.901 19.5449C104.652 19.7195 104.464 19.9666 104.362 20.2523C104.14 21.2778 104.14 22.339 104.362 23.3646C104.464 23.6502 104.652 23.8973 104.901 24.072C105.149 24.2467 105.445 24.3404 105.748 24.3404C106.052 24.3404 106.348 24.2467 106.596 24.072C106.844 23.8973 107.032 23.6502 107.135 23.3646Z" fill="#143166"/>
<path d="M130.748 23.9641C130.525 23.2686 130.419 22.5411 130.434 21.811C130.413 21.0756 130.513 20.3418 130.73 19.6388C131.247 18.0102 132.671 17.0742 134.575 17.0742C136.552 17.0742 137.921 18.0314 138.439 19.6204C138.686 20.5284 138.786 21.4703 138.735 22.41C138.736 22.4364 138.731 22.4627 138.721 22.487C138.711 22.5114 138.695 22.5333 138.676 22.5511C138.656 22.5688 138.633 22.5822 138.608 22.59C138.582 22.5979 138.556 22.6001 138.53 22.5966H133.113C133.098 22.5946 133.082 22.596 133.068 22.601C133.053 22.6059 133.04 22.6142 133.029 22.6252C133.018 22.6361 133.01 22.6494 133.005 22.6641C133.001 22.6787 132.999 22.6943 133.002 22.7095C133.017 22.8822 133.054 23.0522 133.113 23.2154C133.238 23.5954 133.49 23.9213 133.826 24.1391C134.161 24.3569 134.561 24.4536 134.96 24.4133C135.338 24.4217 135.714 24.3549 136.066 24.2167C136.418 24.0786 136.74 23.8718 137.011 23.6085C137.104 23.5333 137.196 23.5149 137.27 23.6085L138.49 24.7709C138.511 24.7854 138.528 24.8043 138.54 24.8262C138.552 24.8482 138.56 24.8726 138.562 24.8978C138.563 24.9229 138.56 24.9481 138.55 24.9716C138.541 24.9951 138.527 25.0161 138.508 25.0334C138.014 25.537 137.42 25.932 136.764 26.1931C136.108 26.4542 135.405 26.5757 134.7 26.5499C132.671 26.5485 131.266 25.5934 130.748 23.9641ZM136.072 20.8559C136.087 20.8579 136.103 20.8564 136.117 20.8515C136.132 20.8466 136.145 20.8384 136.156 20.8275C136.167 20.8166 136.175 20.8034 136.179 20.7888C136.184 20.7743 136.185 20.7589 136.183 20.7438C136.186 20.5157 136.155 20.2884 136.091 20.0696C135.966 19.7755 135.758 19.5247 135.492 19.3483C135.225 19.1719 134.913 19.0779 134.594 19.0779C134.274 19.0779 133.962 19.1719 133.696 19.3483C133.43 19.5247 133.221 19.7755 133.097 20.0696C133.032 20.2884 133.001 20.5157 133.004 20.7438C133.002 20.7589 133.004 20.7744 133.008 20.7889C133.013 20.8035 133.021 20.8166 133.032 20.8275C133.043 20.8384 133.056 20.8466 133.071 20.8515C133.085 20.8564 133.101 20.8579 133.116 20.8559H136.072Z" fill="#143166"/>
<path d="M77.8651 23.9641C77.6424 23.2686 77.5364 22.5411 77.5512 21.811C77.5302 21.0756 77.6302 20.3418 77.8473 19.6388C78.3644 18.0102 79.7882 17.0742 81.6915 17.0742C83.67 17.0742 85.0378 18.0314 85.5555 19.6204C85.8027 20.5284 85.9027 21.4703 85.8517 22.41C85.8527 22.4364 85.8479 22.4627 85.8377 22.487C85.8275 22.5114 85.8121 22.5333 85.7925 22.5511C85.773 22.5688 85.7498 22.5822 85.7246 22.59C85.6993 22.5979 85.6727 22.6001 85.6465 22.5966H80.23C80.2148 22.5946 80.1993 22.596 80.1847 22.601C80.1701 22.6059 80.1569 22.6142 80.1461 22.6252C80.1353 22.6361 80.1272 22.6494 80.1224 22.6641C80.1176 22.6787 80.1163 22.6943 80.1186 22.7095C80.1338 22.8822 80.1713 23.0523 80.23 23.2154C80.3554 23.5954 80.6067 23.9213 80.9425 24.1391C81.2783 24.3569 81.6783 24.4536 82.0766 24.4133C82.4548 24.4217 82.831 24.3549 83.1832 24.2167C83.5354 24.0786 83.8566 23.8718 84.1282 23.6085C84.2199 23.5333 84.3129 23.5149 84.3868 23.6085L85.6068 24.7709C85.6275 24.7854 85.6446 24.8043 85.657 24.8262C85.6694 24.8482 85.6768 24.8726 85.6786 24.8978C85.6803 24.9229 85.6765 24.9481 85.6672 24.9716C85.658 24.9951 85.6437 25.0161 85.6253 25.0334C85.1309 25.5369 84.5369 25.9318 83.8812 26.1929C83.2256 26.454 82.5226 26.5756 81.8173 26.5499C79.7882 26.5485 78.3828 25.5934 77.8651 23.9641ZM83.1893 20.8559C83.2044 20.8579 83.2198 20.8565 83.2343 20.8515C83.2488 20.8466 83.262 20.8384 83.2727 20.8275C83.2835 20.8166 83.2915 20.8034 83.2963 20.7888C83.301 20.7743 83.3023 20.7589 83.3 20.7438C83.3034 20.5157 83.2723 20.2884 83.2077 20.0696C83.0832 19.7755 82.8748 19.5247 82.6086 19.3483C82.3424 19.1719 82.0301 19.0779 81.7107 19.0779C81.3913 19.0779 81.079 19.1719 80.8127 19.3483C80.5465 19.5247 80.3381 19.7755 80.2136 20.0696C80.1493 20.2884 80.1182 20.5157 80.1213 20.7438C80.1191 20.7589 80.1205 20.7744 80.1254 20.7889C80.1302 20.8035 80.1383 20.8166 80.1491 20.8275C80.1599 20.8384 80.1731 20.8466 80.1876 20.8515C80.2021 20.8564 80.2176 20.8579 80.2328 20.8559H83.1893Z" fill="#143166"/>
<path d="M57.3613 31.5964C57.3331 31.2332 57.3687 30.8678 57.4667 30.5168C57.5522 30.2371 57.7306 29.995 57.9725 29.8305C58.2144 29.666 58.5052 29.5891 58.7968 29.6123C59.0636 29.599 59.3283 29.6656 59.557 29.8036C59.7857 29.9416 59.968 30.1447 60.0805 30.3869C60.087 30.3998 60.0881 30.4147 60.0836 30.4284C60.0791 30.4421 60.0694 30.4535 60.0566 30.4601L59.7037 30.6242C59.6964 30.6281 59.6884 30.6303 59.6802 30.631C59.672 30.6317 59.6638 30.6306 59.656 30.6279C59.6482 30.6252 59.6411 30.621 59.6351 30.6154C59.629 30.6098 59.6242 30.603 59.6209 30.5954C59.5498 30.4386 59.4341 30.3061 59.2881 30.2147C59.1421 30.1232 58.9725 30.0768 58.8003 30.0812C58.6182 30.0667 58.4366 30.1148 58.2857 30.2177C58.1348 30.3206 58.0236 30.4719 57.9707 30.6467C57.8688 31.2757 57.8688 31.917 57.9707 32.546C58.0238 32.7207 58.1349 32.872 58.2858 32.9749C58.4367 33.0777 58.6182 33.1259 58.8003 33.1115C58.9725 33.1159 59.1421 33.0696 59.2881 32.9781C59.4341 32.8867 59.5498 32.7542 59.6209 32.5974C59.6242 32.5898 59.629 32.583 59.6351 32.5774C59.6411 32.5718 59.6482 32.5675 59.656 32.5648C59.6638 32.5621 59.672 32.5611 59.6802 32.5617C59.6884 32.5624 59.6964 32.5648 59.7037 32.5687L60.0566 32.7327C60.0694 32.7393 60.0791 32.7507 60.0836 32.7644C60.0881 32.7781 60.087 32.793 60.0805 32.8058C59.968 33.048 59.7857 33.2512 59.557 33.3892C59.3283 33.5272 59.0636 33.5938 58.7968 33.5805C58.5052 33.6038 58.2144 33.5268 57.9725 33.3623C57.7306 33.1978 57.5522 32.9557 57.4667 32.676C57.3687 32.3253 57.333 31.9594 57.3613 31.5964Z" fill="#143166"/>
<path d="M61.9078 32.8506C61.7868 32.4007 61.7868 31.9269 61.9078 31.477C61.9919 31.2622 62.1389 31.0777 62.3295 30.9476C62.5201 30.8176 62.7456 30.748 62.9763 30.748C63.2071 30.748 63.4326 30.8176 63.6232 30.9476C63.8138 31.0777 63.9608 31.2622 64.0449 31.477C64.1651 31.927 64.1651 32.4006 64.0449 32.8506C63.9608 33.0655 63.8138 33.25 63.6232 33.38C63.4326 33.5101 63.2071 33.5796 62.9763 33.5796C62.7456 33.5796 62.5201 33.5101 62.3295 33.38C62.1389 33.25 61.9919 33.0655 61.9078 32.8506ZM63.5867 32.7139C63.6367 32.5335 63.6577 32.3463 63.649 32.1594C63.6576 31.9749 63.6366 31.7902 63.5867 31.6124C63.5403 31.4879 63.4569 31.3805 63.3478 31.3047C63.2386 31.2289 63.1089 31.1884 62.976 31.1884C62.8431 31.1884 62.7134 31.2289 62.6042 31.3047C62.4951 31.3805 62.4117 31.4879 62.3653 31.6124C62.3154 31.7902 62.2944 31.9749 62.303 32.1594C62.2943 32.3463 62.3154 32.5335 62.3653 32.7139C62.4117 32.8384 62.4951 32.9457 62.6042 33.0215C62.7134 33.0973 62.8431 33.1379 62.976 33.1379C63.1089 33.1379 63.2386 33.0973 63.3478 33.0215C63.4569 32.9457 63.5403 32.8384 63.5867 32.7139Z" fill="#143166"/>
<path d="M61.1643 29.6743H60.8142C60.7798 29.6743 60.752 29.7021 60.752 29.7365V33.4559C60.752 33.4903 60.7798 33.5181 60.8142 33.5181H61.1643C61.1987 33.5181 61.2266 33.4903 61.2266 33.4559V29.7365C61.2266 29.7021 61.1987 29.6743 61.1643 29.6743Z" fill="#143166"/>
<path d="M69.6509 29.6743H69.2884C69.2809 29.6739 69.2733 29.6751 69.2663 29.6778C69.2593 29.6806 69.2529 29.6847 69.2476 29.6901C69.2423 29.6955 69.2382 29.7018 69.2356 29.7089C69.2329 29.7159 69.2318 29.7235 69.2323 29.731V31.0821C69.1633 30.9685 69.0634 30.8769 68.9442 30.8179C68.825 30.759 68.6916 30.7351 68.5594 30.7491C68.3253 30.7332 68.0928 30.7964 67.899 30.9286C67.7053 31.0608 67.5616 31.2543 67.4911 31.4779C67.3701 31.9278 67.3701 32.4017 67.4911 32.8516C67.5751 33.0665 67.722 33.251 67.9126 33.3811C68.1032 33.5112 68.3286 33.5808 68.5594 33.5808C68.7902 33.5808 69.0156 33.5112 69.2062 33.3811C69.3967 33.251 69.5436 33.0665 69.6276 32.8516C69.6774 32.6753 69.7038 32.4932 69.7063 32.3101V32.297V29.7318C69.7067 29.7242 69.7055 29.7166 69.7027 29.7096C69.7 29.7025 69.6959 29.696 69.6905 29.6907C69.6852 29.6853 69.6787 29.6812 69.6717 29.6785C69.6646 29.6758 69.6571 29.6746 69.6495 29.675M68.5553 33.1401C68.4207 33.1478 68.2875 33.1102 68.1768 33.0333C68.0661 32.9565 67.9844 32.8449 67.9445 32.7162C67.895 32.5357 67.874 32.3486 67.8823 32.1617C67.874 31.9772 67.895 31.7925 67.9445 31.6146C67.9908 31.4899 68.0742 31.3824 68.1834 31.3064C68.2927 31.2305 68.4225 31.1897 68.5556 31.1897C68.6887 31.1897 68.8186 31.2305 68.9278 31.3064C69.037 31.3824 69.1204 31.4899 69.1667 31.6146C69.2162 31.7925 69.2372 31.9772 69.2289 32.1617C69.2373 32.3486 69.2163 32.5357 69.1667 32.7162C69.1269 32.8449 69.0451 32.9565 68.9344 33.0333C68.8237 33.1102 68.6898 33.1478 68.5553 33.1401Z" fill="#143166"/>
<path d="M51.6309 29.6739C51.6234 29.6735 51.6158 29.6747 51.6088 29.6774C51.6017 29.6801 51.5953 29.6843 51.5899 29.6896C51.5846 29.695 51.5804 29.7014 51.5777 29.7085C51.575 29.7155 51.5738 29.723 51.5742 29.7306V32.296V32.309C51.5766 32.4921 51.6031 32.6742 51.6528 32.8505C51.7368 33.0654 51.8837 33.2499 52.0743 33.38C52.2649 33.5102 52.4903 33.5798 52.7211 33.5798C52.9519 33.5798 53.1773 33.5102 53.3679 33.38C53.5584 33.2499 53.7053 33.0654 53.7893 32.8505C53.9103 32.4006 53.9103 31.9267 53.7893 31.4769C53.7188 31.2532 53.5752 31.0597 53.3814 30.9275C53.1877 30.7953 52.9551 30.7321 52.7211 30.748C52.5889 30.734 52.4554 30.7579 52.3362 30.8168C52.2171 30.8758 52.1172 30.9674 52.0481 31.081V29.7299C52.0486 29.7224 52.0475 29.7149 52.0449 29.7078C52.0422 29.7007 52.0381 29.6943 52.0328 29.6889C52.0275 29.6836 52.0211 29.6794 52.0141 29.6767C52.0071 29.674 51.9996 29.6728 51.992 29.6732H51.6296M52.7238 33.1383C52.5893 33.146 52.4561 33.1085 52.3455 33.0317C52.2349 32.9548 52.1533 32.8431 52.1138 32.7143C52.0636 32.534 52.0423 32.3469 52.0509 32.1599C52.0424 31.9754 52.0636 31.7907 52.1138 31.6129C52.1602 31.4884 52.2435 31.3811 52.3527 31.3053C52.4619 31.2295 52.5916 31.1888 52.7245 31.1888C52.8574 31.1888 52.9871 31.2295 53.0963 31.3053C53.2054 31.3811 53.2888 31.4884 53.3352 31.6129C53.3847 31.7908 53.4057 31.9754 53.3974 32.1599C53.4058 32.3469 53.3848 32.5339 53.3352 32.7143C53.2954 32.8431 53.2136 32.9548 53.1029 33.0316C52.9923 33.1084 52.859 33.1459 52.7245 33.1383" fill="#143166"/>
<path d="M74.739 29.6859H74.0326C73.9982 29.6859 73.9703 29.7138 73.9703 29.7482V33.4676C73.9703 33.502 73.9982 33.5298 74.0326 33.5298H74.739C74.7734 33.5298 74.8013 33.502 74.8013 33.4676V29.7482C74.8013 29.7138 74.7734 29.6859 74.739 29.6859Z" fill="#143166"/>
<path d="M78.9888 31.6056C78.961 31.2553 78.9973 30.9029 79.0962 30.5657C79.182 30.2758 79.3645 30.024 79.6134 29.8523C79.8622 29.6807 80.1625 29.5994 80.464 29.6222C80.7488 29.605 81.0317 29.6782 81.2723 29.8315C81.513 29.9847 81.699 30.2101 81.8037 30.4754C81.8078 30.4815 81.8103 30.4885 81.811 30.4958C81.8117 30.5031 81.8106 30.5105 81.8078 30.5173C81.8049 30.5241 81.8004 30.53 81.7947 30.5346C81.789 30.5393 81.7822 30.5424 81.775 30.5437L81.1698 30.8172C81.1629 30.8216 81.1552 30.8244 81.1471 30.8253C81.1391 30.8263 81.1309 30.8253 81.1233 30.8226C81.1156 30.8199 81.1087 30.8155 81.103 30.8097C81.0973 30.8039 81.093 30.7969 81.0904 30.7892C81.0467 30.6604 80.9628 30.5491 80.851 30.4715C80.7392 30.394 80.6054 30.3543 80.4695 30.3585C80.339 30.3515 80.2102 30.39 80.1051 30.4675C79.9999 30.5449 79.9249 30.6565 79.8929 30.7831C79.81 31.3302 79.81 31.8865 79.8929 32.4336C79.925 32.56 80.0001 32.6715 80.1052 32.7488C80.2104 32.8261 80.3391 32.8645 80.4695 32.8575C80.606 32.8616 80.7408 32.8248 80.8562 32.7516C80.9716 32.6785 81.0625 32.5725 81.1171 32.4472C81.1198 32.4396 81.1241 32.4328 81.1298 32.4271C81.1355 32.4213 81.1425 32.417 81.1501 32.4143C81.1577 32.4116 81.1658 32.4106 81.1738 32.4114C81.1818 32.4123 81.1896 32.415 81.1964 32.4192L81.7771 32.6749C81.8113 32.6866 81.8181 32.7105 81.8058 32.7433C81.7016 33.0094 81.5155 33.2354 81.2742 33.3885C81.0329 33.5417 80.7492 33.6141 80.464 33.5952C80.1625 33.6179 79.8622 33.5367 79.6134 33.365C79.3645 33.1933 79.182 32.9415 79.0962 32.6516C78.9974 32.3144 78.961 31.962 78.9888 31.6117" fill="#143166"/>
<path d="M70.503 31.6056C70.4751 31.2553 70.5115 30.9029 70.6103 30.5657C70.6961 30.2758 70.8786 30.024 71.1275 29.8523C71.3764 29.6807 71.6766 29.5994 71.9781 29.6222C72.2629 29.605 72.5459 29.6782 72.7865 29.8315C73.0271 29.9847 73.2131 30.2101 73.3179 30.4754C73.322 30.4815 73.3245 30.4885 73.3252 30.4958C73.3259 30.5031 73.3248 30.5105 73.3219 30.5173C73.3191 30.5241 73.3146 30.53 73.3089 30.5346C73.3032 30.5393 73.2964 30.5424 73.2892 30.5437L72.6839 30.8172C72.6771 30.8216 72.6693 30.8244 72.6613 30.8253C72.6532 30.8263 72.6451 30.8253 72.6374 30.8226C72.6298 30.8199 72.6228 30.8155 72.6171 30.8097C72.6115 30.8039 72.6072 30.7969 72.6046 30.7892C72.5609 30.6604 72.4769 30.5491 72.3651 30.4715C72.2534 30.394 72.1196 30.3543 71.9836 30.3585C71.8532 30.3515 71.7244 30.39 71.6192 30.4675C71.5141 30.5449 71.4391 30.6565 71.4071 30.7831C71.3242 31.3302 71.3242 31.8865 71.4071 32.4336C71.4392 32.56 71.5143 32.6715 71.6194 32.7488C71.7246 32.8261 71.8533 32.8645 71.9836 32.8575C72.1202 32.8616 72.2549 32.8248 72.3703 32.7516C72.4858 32.6785 72.5767 32.5725 72.6313 32.4472C72.6339 32.4396 72.6383 32.4328 72.644 32.4271C72.6497 32.4213 72.6566 32.417 72.6642 32.4143C72.6718 32.4116 72.6799 32.4106 72.688 32.4114C72.696 32.4123 72.7037 32.415 72.7106 32.4192L73.2912 32.6749C73.3254 32.6866 73.3323 32.7105 73.32 32.7433C73.2158 33.0094 73.0296 33.2354 72.7884 33.3885C72.5471 33.5417 72.2633 33.6141 71.9781 33.5952C71.6766 33.6179 71.3764 33.5367 71.1275 33.365C70.8786 33.1933 70.6961 32.9415 70.6103 32.6516C70.5116 32.3144 70.4752 31.962 70.503 31.6117" fill="#143166"/>
<path d="M82.3461 32.1167V29.7428C82.3456 29.7352 82.3467 29.7276 82.3494 29.7205C82.352 29.7134 82.3562 29.707 82.3616 29.7016C82.3669 29.6962 82.3734 29.6921 82.3805 29.6894C82.3876 29.6867 82.3952 29.6856 82.4028 29.6861H83.1209C83.1285 29.6856 83.1361 29.6867 83.1432 29.6894C83.1503 29.6921 83.1568 29.6962 83.1622 29.7016C83.1676 29.707 83.1717 29.7134 83.1744 29.7205C83.1771 29.7276 83.1782 29.7352 83.1777 29.7428V32.1392C83.1679 32.2293 83.1772 32.3205 83.205 32.4067C83.2328 32.493 83.2785 32.5725 83.339 32.6399C83.3996 32.7074 83.4737 32.7613 83.5564 32.7983C83.6392 32.8352 83.7289 32.8543 83.8195 32.8543C83.9102 32.8543 83.9998 32.8352 84.0826 32.7983C84.1654 32.7613 84.2395 32.7074 84.3 32.6399C84.3606 32.5725 84.4062 32.493 84.434 32.4067C84.4618 32.3205 84.4711 32.2293 84.4614 32.1392V29.7428C84.4609 29.7352 84.462 29.7276 84.4647 29.7205C84.4673 29.7134 84.4715 29.707 84.4769 29.7016C84.4822 29.6962 84.4887 29.6921 84.4958 29.6894C84.5029 29.6867 84.5105 29.6856 84.5181 29.6861H85.2362C85.2438 29.6856 85.2514 29.6867 85.2585 29.6894C85.2656 29.6921 85.2721 29.6962 85.2775 29.7016C85.2828 29.707 85.287 29.7134 85.2897 29.7205C85.2924 29.7276 85.2935 29.7352 85.293 29.7428V32.1167C85.293 32.5072 85.1378 32.8817 84.8616 33.1578C84.5854 33.4339 84.2108 33.5891 83.8202 33.5891C83.4296 33.5891 83.055 33.4339 82.7788 33.1578C82.5026 32.8817 82.3474 32.5072 82.3474 32.1167" fill="#143166"/>
<path d="M77.74 33.5294C77.7213 33.5322 77.7023 33.5279 77.6866 33.5174C77.6709 33.5069 77.6597 33.491 77.6551 33.4727L76.9931 32.0656H76.4788C76.4743 32.0649 76.4696 32.0653 76.4652 32.0668C76.4608 32.0682 76.4568 32.0706 76.4534 32.0739C76.4501 32.0771 76.4476 32.0811 76.4461 32.0855C76.4446 32.0898 76.4441 32.0945 76.4446 32.0991V33.4727C76.4451 33.4803 76.444 33.4879 76.4414 33.495C76.4387 33.5021 76.4345 33.5085 76.4291 33.5139C76.4238 33.5193 76.4173 33.5234 76.4102 33.5261C76.4031 33.5288 76.3955 33.5299 76.3879 33.5294H75.6698C75.6622 33.5299 75.6546 33.5288 75.6475 33.5261C75.6404 33.5234 75.6339 33.5193 75.6285 33.5139C75.6232 33.5085 75.619 33.5021 75.6163 33.495C75.6136 33.4879 75.6125 33.4803 75.613 33.4727V29.7423C75.6125 29.7347 75.6136 29.7271 75.6163 29.72C75.619 29.7129 75.6232 29.7064 75.6285 29.7011C75.6339 29.6957 75.6404 29.6915 75.6475 29.6889C75.6546 29.6862 75.6622 29.685 75.6698 29.6855H77.2017C77.3677 29.6693 77.5351 29.6882 77.6933 29.7409C77.8515 29.7935 77.9969 29.8788 78.1199 29.9912C78.243 30.1037 78.3411 30.2407 78.4079 30.3934C78.4746 30.5462 78.5085 30.7113 78.5073 30.8779C78.5139 31.1041 78.4522 31.3271 78.3302 31.5177C78.2082 31.7083 78.0316 31.8578 77.8234 31.9466L78.5811 33.461C78.5858 33.4678 78.5885 33.4759 78.5888 33.4841C78.5891 33.4924 78.5871 33.5006 78.5829 33.5077C78.5788 33.5149 78.5727 33.5208 78.5653 33.5246C78.558 33.5284 78.5497 33.5301 78.5415 33.5294H77.74ZM77.6777 30.8779C77.6792 30.8112 77.6664 30.745 77.6402 30.6836C77.6139 30.6223 77.5748 30.5673 77.5255 30.5223C77.4762 30.4774 77.4178 30.4435 77.3543 30.423C77.2907 30.4025 77.2236 30.3958 77.1573 30.4035H76.4795C76.4749 30.4028 76.4701 30.4032 76.4657 30.4046C76.4612 30.4061 76.4571 30.4086 76.4538 30.4119C76.4505 30.4152 76.448 30.4193 76.4465 30.4237C76.445 30.4282 76.4446 30.433 76.4453 30.4376V31.3265C76.4448 31.3311 76.4452 31.3357 76.4468 31.3401C76.4483 31.3444 76.4508 31.3484 76.4541 31.3517C76.4574 31.3549 76.4615 31.3573 76.4659 31.3588C76.4703 31.3602 76.4749 31.3606 76.4795 31.3599H77.1573C77.2239 31.3674 77.2913 31.3605 77.355 31.3397C77.4187 31.3188 77.4772 31.2846 77.5266 31.2392C77.5759 31.1939 77.6149 31.1384 77.641 31.0767C77.6671 31.0149 77.6796 30.9484 77.6777 30.8814" fill="#143166"/>
<path d="M65.7704 33.5803C66.5405 33.5803 66.8503 33.1701 66.8503 32.5547V30.8646C66.8508 30.857 66.8497 30.8494 66.847 30.8423C66.8443 30.8352 66.8402 30.8287 66.8348 30.8233C66.8294 30.8179 66.823 30.8137 66.8159 30.8111C66.8087 30.8084 66.8011 30.8073 66.7936 30.8078H66.4311C66.4236 30.8074 66.416 30.8086 66.409 30.8113C66.402 30.814 66.3956 30.8182 66.3903 30.8236C66.385 30.8289 66.3809 30.8354 66.3783 30.8424C66.3756 30.8495 66.3745 30.857 66.375 30.8646V32.4412C66.375 32.8822 66.1767 33.1365 65.7752 33.1365H65.7643C65.3628 33.1365 65.1652 32.8822 65.1652 32.4412V30.8646C65.1657 30.857 65.1646 30.8494 65.1619 30.8423C65.1592 30.8352 65.1551 30.8287 65.1497 30.8233C65.1443 30.8179 65.1379 30.8137 65.1307 30.8111C65.1236 30.8084 65.116 30.8073 65.1084 30.8078H64.746C64.7384 30.8073 64.7308 30.8084 64.7237 30.8111C64.7165 30.8137 64.7101 30.8179 64.7047 30.8233C64.6993 30.8287 64.6952 30.8352 64.6925 30.8423C64.6898 30.8494 64.6887 30.857 64.6892 30.8646V32.5547C64.6892 33.1701 64.9997 33.5803 65.7691 33.5803" fill="#143166"/>
<path d="M88.283 29.9721L88.2481 29.9475C87.9012 29.7388 87.504 29.6287 87.0992 29.6289C86.9426 29.6066 86.7831 29.6175 86.6311 29.6611C86.479 29.7047 86.3379 29.7799 86.217 29.8817C86.096 29.9835 85.9979 30.1097 85.9291 30.2521C85.8602 30.3944 85.8222 30.5498 85.8176 30.7078C85.8176 31.4107 86.4064 31.7012 86.8728 31.8817C87.3515 32.067 87.6436 32.279 87.6456 32.5162C87.6477 32.7535 87.3645 32.8738 87.0937 32.8581C86.7867 32.8267 86.4916 32.7221 86.2334 32.5531C86.2204 32.5462 86.2055 32.5437 86.191 32.546C86.1764 32.5482 86.163 32.555 86.1527 32.5654L85.782 33.0899C85.7737 33.0993 85.7692 33.1114 85.7692 33.124C85.7692 33.1366 85.7737 33.1488 85.782 33.1582C86.1685 33.4398 86.6346 33.5913 87.1129 33.591C87.2743 33.609 87.4377 33.5943 87.5933 33.5477C87.7489 33.5012 87.8936 33.4237 88.0186 33.32C88.1436 33.2163 88.2464 33.0884 88.3208 32.9441C88.3953 32.7997 88.4399 32.6419 88.4519 32.4799C88.4519 31.8762 87.8364 31.4544 87.2435 31.2233C86.7948 31.0482 86.628 30.8938 86.628 30.6716C86.628 30.4494 87.0027 30.1498 87.8207 30.5464C87.8952 30.586 87.9082 30.5655 87.9294 30.5354L88.2919 30.0275C88.2951 30.0234 88.2975 30.0186 88.2988 30.0135C88.3001 30.0084 88.3004 30.0031 88.2995 29.9979C88.2987 29.9927 88.2968 29.9877 88.2939 29.9833C88.2911 29.9788 88.2874 29.975 88.283 29.9721Z" fill="#143166"/>
<path d="M55.196 34.3768H54.7672C54.7501 34.3768 54.7501 34.3652 54.7535 34.3549L55.1775 33.1837L54.2071 30.8673C54.1968 30.8352 54.218 30.8132 54.2508 30.8132H54.6803C54.6956 30.8136 54.7104 30.8192 54.7222 30.829C54.7339 30.8388 54.7421 30.8523 54.7453 30.8673L55.4169 32.5246L56.0167 30.8673C56.0198 30.8524 56.0279 30.839 56.0395 30.8292C56.0512 30.8194 56.0658 30.8138 56.081 30.8132H56.4352C56.4728 30.8132 56.4892 30.8352 56.4783 30.8673L55.2288 34.3542C55.2268 34.3612 55.2224 34.3672 55.2164 34.3713C55.2104 34.3755 55.2032 34.3774 55.196 34.3768Z" fill="#143166"/>
</svg>
