<svg width="40" height="40" viewBox="0 0 40 40" fill="none" xmlns="http://www.w3.org/2000/svg">
<path d="M37.0044 20C37.0044 23.3623 36.0071 26.6491 34.1386 29.4448C32.2701 32.2404 29.6144 34.4193 26.5072 35.706C23.4 36.9926 19.9809 37.3293 16.6824 36.6733C13.3838 36.0173 10.3539 34.3981 7.97584 32.0206C5.59776 29.643 3.97831 26.6138 3.32226 23.3161C2.66622 20.0184 3.00306 16.6002 4.29019 13.4939C5.57732 10.3876 7.75693 7.73256 10.5534 5.86466C13.3498 3.99676 16.6375 2.99986 20.0007 3C22.2337 3 24.4449 3.43974 26.5079 4.29407C28.5709 5.14841 30.4455 6.40064 32.0244 7.97924C33.6034 9.55785 34.8558 11.4319 35.7103 13.4944C36.5648 15.5569 37.0045 17.7675 37.0044 20Z" fill="#00006E"/>
<path d="M31.3255 13.6047C31.459 12.5794 31.1796 11.5432 30.5488 10.7238C29.9181 9.9045 28.9876 9.36926 27.9621 9.2358C26.9365 9.10234 25.9 9.38156 25.0804 10.0122C24.2609 10.6428 23.7254 11.573 23.5919 12.5983C23.5919 12.588 23.5919 12.5777 23.5919 12.5682H23.5666C20.9793 12.5641 18.4777 13.4948 16.5225 15.1889C16.5553 15.1615 16.5909 15.1383 16.6244 15.1117C16.417 15.2738 16.2205 15.4494 16.0363 15.6374C15.0084 16.6389 14.1918 17.8363 13.6348 19.1587C13.0778 20.4812 12.7916 21.9018 12.7932 23.3367C12.7932 23.4181 12.8001 23.4988 12.8021 23.5795V23.5836C12.8023 23.7579 12.8118 23.932 12.8308 24.1053C12.8151 23.9596 12.8069 23.8126 12.8048 23.6642C12.8048 23.6417 12.8048 23.615 12.8048 23.5822L12.7898 27.7037C11.2453 26.259 10.1708 24.3836 9.70578 22.3208C9.24073 20.258 9.40658 18.103 10.1818 16.1356C10.9571 14.1682 12.3059 12.4792 14.0533 11.2877C15.8006 10.0962 17.8659 9.45731 19.981 9.45388H20.0152C20.2854 9.45162 20.5437 9.34207 20.7332 9.14942C20.9227 8.95676 21.0279 8.69674 21.0256 8.42655C21.0234 8.15637 20.9138 7.89815 20.7211 7.7087C20.5284 7.51925 20.2683 7.41415 19.9981 7.41642C17.3192 7.41592 14.7099 8.2698 12.5499 9.85392C10.3898 11.438 8.79155 13.6697 7.98755 16.2245C7.18354 18.7792 7.21572 21.5238 8.07939 24.059C8.94306 26.5942 10.5932 28.7879 12.7898 30.321C12.9941 30.4513 13.2313 30.5208 13.4737 30.5213H22.6509V30.5117C22.651 30.1635 22.5825 29.8187 22.4492 29.497C22.3159 29.1754 22.1206 28.8831 21.8743 28.6369C21.628 28.3907 21.3356 28.1955 21.0137 28.0623C20.6919 27.9292 20.347 27.8608 19.9988 27.8609H19.9625C20.9662 27.3188 21.7477 26.4417 22.1708 25.3825C23.2252 25.029 24.1589 24.3862 24.8654 23.5275L25.831 28.7921L25.9876 29.6468L26.0047 29.7425C26.0526 29.9454 26.1617 30.1288 26.3171 30.2678C26.4726 30.4068 26.6669 30.4949 26.874 30.52H29.9023L29.4919 28.2677L28.9893 25.5267L27.5852 17.8738C27.5542 17.6494 27.5977 17.421 27.709 17.2237C27.7915 17.0962 27.9027 16.9899 28.0339 16.9133C28.2178 17.2387 28.4745 17.5171 28.784 17.7268C29.0935 17.9365 29.4474 18.0717 29.8179 18.1218C30.1884 18.172 30.5654 18.1357 30.9196 18.0159C31.2737 17.896 31.5953 17.6958 31.8591 17.431C32.123 17.1662 32.3219 16.844 32.4404 16.4895C32.5589 16.1349 32.5937 15.7578 32.5421 15.3876C32.4904 15.0174 32.3538 14.6642 32.1429 14.3556C31.9319 14.047 31.6524 13.7914 31.3261 13.6089L31.3255 13.6047ZM26.7837 15.0959C26.3846 15.0965 25.9997 14.9477 25.7047 14.6789C25.4097 14.4101 25.2261 14.0406 25.1898 13.6432C25.1535 13.2459 25.2673 12.8493 25.5087 12.5315C25.7502 12.2138 26.1018 11.9979 26.4944 11.9262L27.0709 15.0713C26.9752 15.0879 26.8781 15.096 26.781 15.0952L26.7837 15.0959Z" fill="#00AFFF"/>
<path d="M29.9042 30.5157L29.4938 28.2636L28.9911 25.5225C28.1871 26.8258 27.1104 27.9396 25.835 28.7873L25.9916 29.6419L26.0087 29.7377C26.0566 29.9406 26.1656 30.124 26.321 30.263C26.4765 30.402 26.6709 30.49 26.8779 30.515L29.9042 30.5157Z" fill="#2862CB"/>
<path d="M24.8666 23.5234C25.7329 22.4609 26.2089 21.1337 26.2153 19.763C26.2153 18.1921 25.5911 16.6856 24.48 15.5748C23.3689 14.464 21.862 13.8399 20.2907 13.8399C18.7194 13.8399 17.2124 14.464 16.1014 15.5748C14.9903 16.6856 14.3661 18.1921 14.3661 19.763C14.3661 19.8464 14.3661 19.9305 14.3722 20.0139C14.5056 19.8913 14.6456 19.776 14.7915 19.6687C15.6053 19.0712 16.5858 18.7434 17.5954 18.7312C18.3817 18.5595 19.1942 18.5454 19.986 18.6897C20.7777 18.834 21.533 19.1339 22.208 19.5719C22.8831 20.01 23.4646 20.5776 23.9188 21.2417C24.373 21.9059 24.691 22.6535 24.8543 23.4414C24.8584 23.4653 24.8625 23.4885 24.8673 23.5097" fill="#2862CB"/>
<path d="M24.8646 23.5119L24.8517 23.4436C24.6883 22.6557 24.3704 21.908 23.9161 21.2439C23.4619 20.5797 22.8804 20.0122 22.2054 19.5741C21.5303 19.1361 20.775 18.8362 19.9833 18.6919C19.1915 18.5476 18.379 18.5617 17.5928 18.7334H17.6612C18.4544 18.7321 19.2359 18.9254 19.9371 19.2963C20.6383 19.6672 21.2378 20.2043 21.683 20.8607C22.1282 21.5171 22.4055 22.2727 22.4907 23.0612C22.5759 23.8496 22.4662 24.6469 22.1715 25.3832C23.2259 25.0297 24.1596 24.387 24.866 23.5284L24.8646 23.5119Z" fill="#2862CB"/>
<path d="M20.2894 25.6848C18.8547 25.6845 17.4689 25.1638 16.3891 24.2194C15.3094 23.275 14.6091 21.971 14.4181 20.5494C14.3942 20.373 14.3785 20.1939 14.3709 20.0127C13.6529 20.6748 13.1513 21.5381 12.9317 22.4897C12.7121 23.4413 12.7846 24.4369 13.1399 25.3466C13.4952 26.2564 14.1167 27.0378 14.9232 27.5888C15.7297 28.1399 16.6836 28.435 17.6605 28.4355C17.9149 28.4355 18.1689 28.4158 18.4203 28.3766C19.2518 28.2452 20.0348 27.8996 20.6923 27.3739C21.3497 26.8483 21.859 26.1606 22.1701 25.3785C21.5639 25.5818 20.9288 25.6852 20.2894 25.6848Z" fill="#2862CB"/>
<path d="M23.5638 13.0506C23.5643 12.889 23.5745 12.7277 23.5946 12.5673H23.5706C20.9833 12.5632 18.4817 13.4939 16.5265 15.1879C17.7055 14.218 19.2135 13.7406 20.736 13.8553C22.2585 13.9699 23.678 14.6678 24.6984 15.8033C24.3377 15.4415 24.0518 15.0122 23.8571 14.5398C23.6624 14.0675 23.5628 13.5615 23.5638 13.0506Z" fill="#2862CB"/>
<path d="M12.8066 23.5819C12.806 22.911 12.9448 22.2474 13.2143 21.633C13.4838 21.0186 13.878 20.4669 14.3721 20.0129C14.3687 19.9295 14.3659 19.8461 14.3659 19.762C14.3639 18.2095 14.9738 16.7188 16.0633 15.6125C15.0286 16.6149 14.2062 17.8152 13.6452 19.1419C13.0841 20.4686 12.7959 21.8947 12.7977 23.3351C12.7977 23.4178 12.8046 23.4998 12.8066 23.5819Z" fill="#2862CB"/>
<path d="M28.0338 16.9092C28.2178 17.2345 28.4747 17.5128 28.7842 17.7223C29.0937 17.9318 29.4475 18.0669 29.818 18.1169C30.1884 18.1669 30.5654 18.1305 30.9194 18.0107C31.2735 17.8908 31.5949 17.6906 31.8587 17.4258C32.1225 17.161 32.3214 16.8388 32.4398 16.4844C32.5583 16.13 32.5931 15.7529 32.5415 15.3828C32.4899 15.0127 32.3533 14.6595 32.1425 14.3509C31.9316 14.0424 31.6522 13.7868 31.3261 13.6041C31.2067 14.4361 30.8217 15.2072 30.2284 15.8028C29.6352 16.3983 28.8655 16.7863 28.0338 16.9092Z" fill="#2862CB"/>
<path d="M27.7185 15.7162C27.7185 16.1343 27.8271 16.5452 28.0338 16.9086C28.8653 16.7858 29.635 16.3978 30.2282 15.8024C30.8214 15.207 31.2065 14.436 31.3261 13.6042C30.9575 13.3972 30.5411 13.2903 30.1183 13.2941C29.6955 13.2979 29.2811 13.4123 28.9163 13.626C28.5515 13.8397 28.2491 14.1452 28.039 14.512C27.829 14.8789 27.7187 15.2943 27.7192 15.717L27.7185 15.7162Z" fill="#2862CB"/>
<path d="M27.464 9.14952C26.4295 9.14308 25.4348 9.54774 24.6988 10.2745C23.9627 11.0013 23.5456 11.9906 23.5391 13.0248C23.5327 14.0591 23.9375 15.0535 24.6644 15.7893C25.3914 16.5252 26.381 16.9422 27.4155 16.9487H27.464C27.6545 16.9487 27.8446 16.9348 28.033 16.907C27.7724 16.4469 27.6696 15.9142 27.7403 15.3903C27.811 14.8663 28.0513 14.3799 28.4245 14.0053C28.7977 13.6307 29.2833 13.3886 29.8071 13.3158C30.3309 13.2431 30.8641 13.3438 31.3253 13.6025C31.4053 13.0491 31.3652 12.485 31.2078 11.9485C31.0504 11.412 30.7793 10.9156 30.4131 10.493C30.0468 10.0705 29.5938 9.73162 29.085 9.49956C28.5761 9.2675 28.0233 9.14766 27.464 9.1481V9.14952ZM26.7801 15.0978C26.381 15.0984 25.9961 14.9496 25.7011 14.6808C25.4062 14.412 25.2225 14.0426 25.1862 13.6452C25.15 13.2478 25.2637 12.8512 25.5051 12.5335C25.7466 12.2157 26.0982 11.9998 26.4908 11.9281L27.0674 15.0732C26.9736 15.0888 26.8786 15.0961 26.7835 15.0951L26.7801 15.0978Z" fill="#2862CB"/>
<path d="M27.5851 17.8692C27.5913 17.9875 27.5954 18.1079 27.5954 18.2282C27.5905 19.2633 27.3407 20.2825 26.8666 21.2027C26.3925 22.1229 25.7074 22.918 24.8673 23.5229L25.833 28.7875C27.1084 27.9398 28.1852 26.826 28.9892 25.5228L27.5851 17.8692Z" fill="#2862CB"/>
<path d="M22.6351 30.2138C22.5641 29.565 22.2558 28.9653 21.7694 28.5299C21.283 28.0945 20.6529 27.8541 20 27.8549H19.9638C19.4827 28.114 18.9613 28.2897 18.4216 28.3746C18.1702 28.4137 17.9162 28.4334 17.6618 28.4334C16.4652 28.433 15.3109 27.9909 14.4203 27.1919C13.5297 26.3929 12.9656 25.2933 12.8362 24.1041C12.8205 23.9585 12.8123 23.8114 12.8102 23.6631C12.8102 23.6405 12.8102 23.6131 12.8102 23.5783L12.7952 27.7005C13.2922 28.1648 13.8327 28.5803 14.4092 28.9414C14.5398 29.0227 14.6718 29.1021 14.8065 29.178C16.1529 29.9426 17.6523 30.3988 19.1964 30.5139H22.6494V30.5043C22.65 30.4073 22.6452 30.3103 22.6351 30.2138Z" fill="#2862CB"/>
</svg>
