<?xml version="1.0" encoding="UTF-8" standalone="no"?>
<svg
   width="24"
   height="24"
   viewBox="0 0 24 24"
   fill="none"
   version="1.1"
   id="svg15"
   sodipodi:docname="Type=BowNow, Status=On.svg"
   inkscape:version="1.4.2 (ebf0e940, 2025-05-08)"
   xmlns:inkscape="http://www.inkscape.org/namespaces/inkscape"
   xmlns:sodipodi="http://sodipodi.sourceforge.net/DTD/sodipodi-0.dtd"
   xmlns="http://www.w3.org/2000/svg"
   xmlns:svg="http://www.w3.org/2000/svg">
  <defs
     id="defs15" />
  <sodipodi:namedview
     id="namedview15"
     pagecolor="#ffffff"
     bordercolor="#000000"
     borderopacity="0.25"
     inkscape:showpageshadow="2"
     inkscape:pageopacity="0.0"
     inkscape:pagecheckerboard="0"
     inkscape:deskcolor="#d1d1d1"
     inkscape:zoom="12.256518"
     inkscape:cx="10.606602"
     inkscape:cy="13.054279"
     inkscape:window-width="1248"
     inkscape:window-height="807"
     inkscape:window-x="0"
     inkscape:window-y="25"
     inkscape:window-maximized="0"
     inkscape:current-layer="svg15" />
  <path
     d="M5.78927 13.6705C5.85268 12.7932 6.12445 11.9437 6.582 11.1925C5.89793 11.3955 5.30159 11.8218 4.88818 12.4033C4.47477 12.9849 4.26812 13.6882 4.30123 14.401C4.33435 15.1137 4.60531 15.7948 5.07087 16.3356C5.53642 16.8763 6.16971 17.2455 6.86965 17.3842C6.0754 16.3161 5.69193 14.9979 5.78927 13.6705Z"
     fill="#FF4646"
     id="path1" />
  <path
     d="M19.701 8.52722C19.7012 8.33332 19.6563 8.14204 19.5698 7.96851C19.4832 7.79498 19.3575 7.64395 19.2026 7.52739C19.2087 7.53232 19.2153 7.53561 19.2215 7.54013C18.873 7.26751 18.5813 6.9294 18.3626 6.54484C18.3683 6.5584 18.3729 6.57196 18.3782 6.58593C18.1535 6.04029 17.7425 5.5921 17.2182 5.32118C16.694 5.05026 16.0906 4.9742 15.5155 5.10654H15.5114L15.4892 5.09503C15.3216 5.01549 15.1347 4.98541 14.9505 5.00832C14.698 5.0477 14.4681 5.17665 14.3028 5.37159C13.6327 6.02261 13.0696 6.77542 12.6344 7.60219C12.6151 7.63999 12.6011 7.66917 12.5933 7.6889L12.5908 7.69301L12.5888 7.69794C12.4969 7.8906 12.4443 8.09961 12.4339 8.31281C12.4235 8.526 12.4556 8.73913 12.5284 8.9398C12.5263 8.93323 12.5226 8.92748 12.5206 8.9209C12.3755 8.90298 12.2295 8.89377 12.0833 8.89336C11.1929 8.89207 10.334 9.22311 9.67476 9.82168C8.71294 10.5186 7.92955 11.4331 7.38855 12.4905C6.84755 13.548 6.56427 14.7183 6.56183 15.9061C6.56183 15.9377 6.56183 15.9694 6.56183 16.001C6.56183 16.024 6.55937 16.0462 6.55937 16.0692C6.55937 16.8463 6.86807 17.5916 7.41756 18.1411C7.96705 18.6905 8.71233 18.9992 9.48943 18.9992C9.53627 18.9992 9.58352 18.9992 9.62955 18.9955L13.7534 18.9824C13.6516 18.5917 13.4399 18.2383 13.1434 17.9642C12.8469 17.6901 12.478 17.5068 12.0804 17.436C12.3033 17.0148 12.4195 16.5454 12.4191 16.0688C12.4191 16.0631 12.4191 16.0573 12.4191 16.0511C12.8893 16.0072 13.3462 15.8707 13.7635 15.6496C14.1808 15.4284 14.5503 15.1269 14.8506 14.7624L15.4847 18.253L15.5377 18.5369C15.5672 18.6682 15.6407 18.7854 15.7459 18.8692C15.8512 18.9529 15.9818 18.9983 16.1163 18.9976H17.8912L17.4565 16.5948L16.3547 10.5503C16.3547 10.5367 16.3547 10.5228 16.3547 10.5092C16.3549 10.3804 16.3953 10.255 16.4704 10.1504C16.5455 10.0458 16.6515 9.96735 16.7735 9.92606C16.7891 9.92072 16.8051 9.9162 16.8211 9.91209C16.8293 9.91004 16.8372 9.90674 16.8454 9.90428L16.8684 9.89648L18.5348 9.77771H18.5002C18.823 9.76436 19.1282 9.6268 19.352 9.39377C19.5757 9.16075 19.7008 8.85028 19.701 8.52722Z"
     fill="#FF4646"
     id="path2" />
  <path
     d="M5.78925 13.6704C5.85266 12.7931 6.12443 11.9436 6.58197 11.1924C6.03197 11.3556 5.53609 11.6639 5.14649 12.085C4.75689 12.5062 4.48798 13.0245 4.368 13.5855C4.24803 14.1465 4.28144 14.7294 4.46472 15.2731C4.648 15.8167 4.97438 16.3009 5.40954 16.6747C5.58474 16.3347 5.78862 16.0103 6.01898 15.7049C5.81667 15.0469 5.73876 14.3569 5.78925 13.6704Z"
     fill="#FF0000"
     id="path3" />
  <path
     d="M6.019 15.7047C5.78864 16.0101 5.58476 16.3345 5.40956 16.6745C5.82665 17.0333 6.32977 17.2776 6.86965 17.3834C6.49266 16.8763 6.20499 16.3086 6.019 15.7047Z"
     fill="#D20000"
     id="path4" />
  <path
     d="M10.1083 12.7373C9.57546 12.8362 9.06205 13.0203 8.58781 13.2826C9.02597 13.1409 9.49137 13.1045 9.94625 13.1763C10.4011 13.248 10.8327 13.4261 11.2059 13.6959C11.5791 13.9657 11.8834 14.3196 12.0942 14.7291C12.305 15.1385 12.4163 15.5919 12.4191 16.0524C12.8893 16.0084 13.3462 15.872 13.7635 15.6508C14.1808 15.4296 14.5503 15.1281 14.8506 14.7637C14.0653 13.2345 12.1367 12.3576 10.1083 12.7373Z"
     fill="#D20000"
     id="path5" />
  <path
     d="M16.0744 5.04407C15.8862 5.0443 15.6986 5.06566 15.5151 5.10776C15.6586 5.18029 15.782 5.28702 15.8744 5.41853C15.9669 5.55004 16.0255 5.70229 16.0452 5.86184C16.0452 5.86184 16.0575 5.94403 16.0579 5.9654C16.0828 6.93195 15.9329 7.89505 15.6154 8.80829L15.6059 8.83665C15.4976 9.21099 15.259 9.53426 14.9332 9.74811C15.2848 9.93372 15.6768 10.0296 16.0744 10.0271C16.3101 10.0272 16.5447 9.9936 16.7709 9.92729C16.7866 9.92194 16.8026 9.91742 16.8186 9.91332C16.8268 9.91126 16.8346 9.90798 16.8429 9.90551L16.8659 9.8977C17.1439 9.80474 17.4032 9.66324 17.6319 9.47977C17.6163 9.46662 17.6027 9.45142 17.5875 9.43868C17.4042 9.26675 17.2769 9.04366 17.222 8.79841C17.1672 8.55316 17.1874 8.29709 17.2801 8.06348C17.3727 7.82987 17.5335 7.62952 17.7415 7.48847C17.9495 7.34743 18.1951 7.27222 18.4464 7.27261C18.4825 7.27261 18.5179 7.27466 18.5528 7.27795C18.4891 6.66503 18.2005 6.09747 17.7427 5.6849C17.285 5.27233 16.6906 5.04402 16.0744 5.04407Z"
     fill="#FF6464"
     id="path6" />
  <path
     d="M16.3538 10.5511V10.568C16.2918 11.8384 15.9132 13.0732 15.2525 14.16C15.2114 14.2389 15.1658 14.3166 15.1185 14.3918C15.0368 14.5206 14.9471 14.6442 14.8498 14.7617L15.4839 18.2522C16.247 17.8391 16.9181 17.2751 17.4564 16.5945L16.3538 10.5511Z"
     fill="#FF0000"
     id="path7" />
  <path
     d="M14.593 9.9171C14.3916 9.98918 14.1778 10.0205 13.9641 10.0093C13.7504 9.99807 13.5411 9.94451 13.3483 9.85172C13.1555 9.75893 12.983 9.62876 12.8409 9.46877C12.6989 9.30878 12.59 9.12216 12.5206 8.91974C12.3755 8.90181 12.2295 8.89262 12.0834 8.89221C11.1316 8.89243 10.2189 9.27059 9.54595 9.94357C8.87297 10.6165 8.49479 11.5292 8.49457 12.481C8.49506 12.6482 8.50742 12.8152 8.53155 12.9807C8.53648 13.0156 8.5406 13.0513 8.54676 13.0859V13.0933C8.55772 13.1576 8.57046 13.2215 8.58498 13.2848H8.58786C9.0621 13.0225 9.57551 12.8383 10.1084 12.7394C12.1368 12.3593 14.0654 13.2367 14.8503 14.7658C14.9476 14.6483 15.0373 14.5248 15.119 14.396C15.1663 14.3208 15.2111 14.2431 15.253 14.1642C15.6163 13.4799 15.7483 12.6964 15.6293 11.9309C15.5104 11.1653 15.1468 10.4589 14.593 9.9171Z"
     fill="#FF6464"
     id="path8" />
  <path
     d="M18.5533 7.27939C18.5961 7.69369 18.5343 8.1121 18.3735 8.49633C18.2128 8.88056 17.9582 9.21834 17.6332 9.47875C17.8598 9.67387 18.149 9.78107 18.4481 9.7808C18.4653 9.7808 18.4822 9.78079 18.4994 9.77833C18.8181 9.76574 19.1199 9.63211 19.3434 9.40468C19.5669 9.17725 19.6953 8.87314 19.7023 8.55434C19.7093 8.23555 19.5945 7.92607 19.3812 7.68902C19.1679 7.45196 18.8723 7.30517 18.5545 7.27856L18.5533 7.27939Z"
     fill="#FF0000"
     id="path9" />
  <path
     d="M12.0808 17.4369C11.5507 17.338 11.0029 17.444 10.5479 17.7335C10.093 18.0229 9.7649 18.4743 9.62994 18.9964C10.1388 18.972 10.6325 18.8153 11.0623 18.5418C11.4922 18.2684 11.8432 17.8875 12.0808 17.4369Z"
     fill="#D20000"
     id="path10" />
  <path
     d="M8.58491 13.2839C7.92131 13.4992 7.35633 13.9443 6.99162 14.539C6.6269 15.1337 6.48641 15.8391 6.59539 16.5282C6.70438 17.2173 7.05569 17.8448 7.58614 18.298C8.11659 18.7511 8.79135 19.0001 9.489 19.0001C9.53585 19.0001 9.58311 19.0001 9.62914 18.9964C9.76409 18.4744 10.0922 18.023 10.5471 17.7335C11.0021 17.444 11.5499 17.338 12.08 17.4369C12.3029 17.0157 12.4191 16.5463 12.4186 16.0697V16.052C12.3077 16.0623 12.1951 16.0681 12.0817 16.0681C11.2698 16.0679 10.482 15.7925 9.84693 15.2868C9.21182 14.7811 8.76693 14.0751 8.58491 13.2839Z"
     fill="#FF0000"
     id="path11" />
  <path
     d="M13.6873 6.81343C13.8143 6.39356 14.0498 6.01462 14.37 5.71478C14.6902 5.41494 15.0838 5.20481 15.511 5.10556L15.4889 5.09405C15.3212 5.01451 15.1343 4.98443 14.9501 5.00734C14.6976 5.04672 14.4677 5.17567 14.3024 5.37062C13.6323 6.02163 13.0692 6.77445 12.634 7.60121C12.7449 7.4037 12.8959 7.23157 13.0773 7.0959C13.2587 6.96023 13.4665 6.864 13.6873 6.81343Z"
     fill="#FF0000"
     id="path12" />
  <path
     d="M13.5817 7.53245C13.5815 7.289 13.6171 7.04685 13.6873 6.81372C13.4666 6.86455 13.259 6.96096 13.0779 7.09677C12.8967 7.23258 12.7459 7.40479 12.6352 7.60232C12.6159 7.64013 12.602 7.6693 12.5942 7.68903L12.5917 7.69354L12.5896 7.69807C12.4378 8.01672 12.3942 8.37627 12.4657 8.72195C12.5371 9.06763 12.7195 9.38049 12.9852 9.61287C13.251 9.84525 13.5853 9.9844 13.9375 10.0091C14.2896 10.0339 14.6401 9.94284 14.9357 9.74989C14.5278 9.54069 14.1856 9.22297 13.9466 8.83172C13.7077 8.44047 13.5814 7.99088 13.5817 7.53245Z"
     fill="#D20000"
     id="path13" />
  <path
     d="M15.5151 9.07891V9.0744C15.5517 8.99585 15.5819 8.91449 15.6055 8.83111C15.6735 8.59037 15.6847 8.33716 15.6384 8.09135C15.592 7.84554 15.4893 7.61383 15.3383 7.41439C15.1873 7.21495 14.9921 7.0532 14.7681 6.94187C14.5441 6.83054 14.2974 6.77263 14.0472 6.77271C13.9254 6.77291 13.804 6.78669 13.6852 6.8138C13.5173 7.37139 13.5501 7.97017 13.7777 8.50615C14.0053 9.04214 14.4134 9.48148 14.9312 9.74792C15.1841 9.58336 15.3863 9.35174 15.5151 9.07891Z"
     fill="#FF0000"
     id="path14" />
  <path
     d="M13.6876 6.81475C13.8064 6.78764 13.9278 6.77386 14.0497 6.77366C14.2998 6.77359 14.5466 6.8315 14.7706 6.94283C14.9946 7.05417 15.1897 7.2159 15.3407 7.41534C15.4917 7.61478 15.5944 7.8465 15.6408 8.09231C15.6872 8.33812 15.6759 8.59133 15.608 8.83206L15.6158 8.80905C15.9333 7.89581 16.0833 6.93271 16.0584 5.96616C16.0584 5.9452 16.0456 5.86261 16.0456 5.86261C16.026 5.70306 15.9673 5.55081 15.8748 5.4193C15.7824 5.28779 15.659 5.18105 15.5155 5.10852H15.5114C15.0843 5.20762 14.6909 5.41752 14.3707 5.71706C14.0505 6.01659 13.8149 6.3952 13.6876 6.81475Z"
     fill="#D20000"
     id="path15" />
</svg>
